<svg width="42" height="42" viewBox="0 0 42 42" fill="none" xmlns="http://www.w3.org/2000/svg">
<g id="free-icon-car-5673275 1" clip-path="url(#clip0_227_388)">
<g id="Group">
<path id="Vector" opacity="0.975" fill-rule="evenodd" clip-rule="evenodd" d="M19.5645 0.615677C24.6209 0.286394 28.5037 2.24147 31.2129 6.48091C32.2793 6.50825 33.3457 6.5356 34.4121 6.56294C37.0781 7.15084 38.7051 8.77779 39.293 11.4438C39.3477 12.4009 39.3477 13.3578 39.293 14.3149C39.0606 14.9848 38.6094 15.436 37.9395 15.6684C36.4348 15.6821 34.9309 15.7231 33.4277 15.7915C33.2751 16.4835 32.9743 17.0987 32.5254 17.6372C35.4035 17.6382 38.2746 17.6929 41.1387 17.8012C41.19 17.8627 41.231 17.9312 41.2617 18.0063C41.3164 19.5376 41.3164 21.0688 41.2617 22.6001C41.231 22.6752 41.19 22.7436 41.1387 22.8051C34.4188 22.9006 27.6922 22.9416 20.959 22.9282C14.2871 22.9145 7.61524 22.9009 0.943367 22.8872C0.86821 22.8565 0.799848 22.8155 0.738289 22.7641C0.644513 21.9516 0.603498 21.1313 0.615242 20.3032C0.628914 19.5376 0.642585 18.7719 0.656258 18.0063C0.686957 17.9312 0.727973 17.8627 0.779304 17.8012C4.081 17.6928 7.3896 17.6381 10.7051 17.6372C10.2562 17.0987 9.9554 16.4835 9.80274 15.7915C8.7374 15.7231 7.67098 15.6821 6.60352 15.6684C6.02773 15.4756 5.6039 15.1064 5.33204 14.561C5.19797 12.7342 5.17063 10.9021 5.25001 9.0649C5.59181 7.73872 6.42579 6.90474 7.75196 6.56294C8.73634 6.5356 9.72071 6.50825 10.7051 6.48091C12.7752 3.19011 15.7284 1.23504 19.5645 0.615677ZM19.7285 2.01021C19.9199 2.01021 20.1114 2.01021 20.3027 2.01021C20.3027 3.51411 20.3027 5.01802 20.3027 6.52193C17.6776 6.53559 15.0526 6.52193 12.4277 6.48091C14.2272 3.95716 16.6608 2.46693 19.7285 2.01021ZM21.6152 2.01021C24.9416 2.29181 27.5666 3.78204 29.4902 6.48091C26.8654 6.52193 24.2404 6.53559 21.6152 6.52193C21.6152 5.01802 21.6152 3.51411 21.6152 2.01021ZM8.49024 7.83443C8.70902 7.83443 8.92771 7.83443 9.14649 7.83443C9.4473 9.88521 8.57227 10.7602 6.52149 10.4594C6.41721 8.98139 7.07346 8.10641 8.49024 7.83443ZM10.459 7.83443C17.8965 7.83443 25.334 7.83443 32.7715 7.83443C32.7579 8.49125 32.7715 9.1475 32.8125 9.80318C33.0723 10.8286 33.7149 11.4711 34.7402 11.7309C35.8063 11.7719 36.8727 11.7856 37.9395 11.7719C38.0078 12.4272 38.0214 13.0834 37.9805 13.7407C37.9395 14.1098 37.7344 14.3149 37.3652 14.3559C36.0519 14.4242 34.7394 14.4105 33.4277 14.3149C32.7292 11.9359 31.1433 10.8832 28.6699 11.1567C27.0126 11.5973 25.9736 12.65 25.5527 14.3149C22.9277 14.4242 20.3027 14.4242 17.6777 14.3149C16.8905 11.8017 15.1951 10.7763 12.5918 11.2387C11.1034 11.7564 10.1738 12.7818 9.80274 14.3149C8.92903 14.4105 8.05402 14.4242 7.17774 14.3559C6.8086 14.3149 6.60352 14.1098 6.56251 13.7407C6.52152 13.085 6.50784 12.4288 6.52149 11.7719C9.50193 12.1274 10.8144 10.8149 10.459 7.83443ZM34.084 7.91646C35.6297 8.21013 36.7781 9.04414 37.5293 10.4184C36.8183 10.4731 36.1075 10.4731 35.3965 10.4184C34.8169 10.3817 34.4204 10.0946 34.207 9.55708C34.1025 9.01543 34.0615 8.46853 34.084 7.91646ZM13.6582 12.4282C15.5978 12.6698 16.4591 13.7636 16.2422 15.7094C15.7215 17.1528 14.6962 17.7681 13.166 17.5551C11.6378 17.0569 10.9951 16.0042 11.2383 14.3969C11.634 13.2231 12.4407 12.5669 13.6582 12.4282ZM29.4082 12.4282C31.3478 12.6698 32.2091 13.7636 31.9922 15.7094C31.4715 17.1528 30.4462 17.7681 28.916 17.5551C27.3878 17.0569 26.7451 16.0042 26.9883 14.3969C27.384 13.2231 28.1907 12.5669 29.4082 12.4282ZM17.6777 15.7094C20.3033 15.6821 22.9283 15.7094 25.5527 15.7915C25.7054 16.4835 26.0062 17.0987 26.4551 17.6372C23.2285 17.6919 20.0019 17.6919 16.7754 17.6372C17.2411 17.075 17.5419 16.4325 17.6777 15.7094ZM1.92774 18.9907C14.6153 18.9907 27.3027 18.9907 39.9902 18.9907C39.9902 19.8657 39.9902 20.7406 39.9902 21.6157C27.3027 21.6157 14.6153 21.6157 1.92774 21.6157C1.92774 20.7406 1.92774 19.8657 1.92774 18.9907Z" fill="white"/>
</g>
<g id="Group_2">
<path id="Vector_2" fill-rule="evenodd" clip-rule="evenodd" d="M17.6797 9.14648C18.5547 9.14648 19.4297 9.14648 20.3047 9.14648C20.3047 9.58396 20.3047 10.0215 20.3047 10.459C19.4297 10.459 18.5547 10.459 17.6797 10.459C17.6797 10.0215 17.6797 9.58396 17.6797 9.14648Z" fill="white"/>
</g>
<g id="Group_3">
<path id="Vector_3" fill-rule="evenodd" clip-rule="evenodd" d="M21.6172 9.14648C22.4922 9.14648 23.3672 9.14648 24.2422 9.14648C24.2422 9.58396 24.2422 10.0215 24.2422 10.459C23.3672 10.459 22.4922 10.459 21.6172 10.459C21.6172 10.0215 21.6172 9.58396 21.6172 9.14648Z" fill="white"/>
</g>
<g id="Group_4">
<path id="Vector_4" opacity="0.936" fill-rule="evenodd" clip-rule="evenodd" d="M32.9361 23.584C35.2436 23.4717 36.269 24.5654 36.0122 26.8653C35.834 27.3168 35.5879 27.7269 35.274 28.0957C33.7017 29.8321 32.1295 31.5684 30.5572 33.3047C30.1098 33.6378 29.6177 33.8839 29.0806 34.043C25.608 34.0703 22.1353 34.0977 18.6626 34.125C18.0188 34.7551 17.3899 35.3977 16.7759 36.0528C17.0783 36.3687 17.3654 36.6969 17.6372 37.0371C17.7043 37.3213 17.6769 37.5948 17.5552 37.8575C16.4181 39.022 15.256 40.1567 14.0689 41.2617C13.7847 41.3288 13.5112 41.3014 13.2486 41.1797C10.7716 38.7302 8.3244 36.2555 5.90677 33.7559C5.83978 33.4717 5.86713 33.1982 5.9888 32.9356C7.09622 31.8282 8.20365 30.7207 9.31107 29.6133C9.57373 29.4917 9.84722 29.4643 10.1314 29.5313C10.4567 29.7744 10.7575 30.0478 11.0337 30.3516C11.0884 30.4063 11.1431 30.4063 11.1978 30.3516C12.458 29.064 13.7431 27.8062 15.0533 26.5782C16.7771 25.2789 18.7185 24.732 20.8775 24.9375C21.6369 25.1237 22.2385 25.5339 22.6822 26.168C24.2681 26.1953 25.8541 26.2227 27.44 26.25C27.8982 26.3797 28.2673 26.6395 28.5474 27.0293C29.6898 26.0683 30.8246 25.0977 31.9517 24.1172C32.2744 23.9151 32.6025 23.7373 32.9361 23.584ZM33.5103 24.8965C34.6456 25.1708 34.9601 25.8271 34.4536 26.8653C32.772 28.711 31.0904 30.5567 29.4087 32.4024C29.0789 32.5943 28.7234 32.7038 28.3423 32.7305C24.897 32.7578 21.4517 32.7852 18.0064 32.8125C17.2432 33.4936 16.5049 34.2045 15.7915 34.9453C15.7368 35.0001 15.6822 35.0001 15.6275 34.9453C14.4642 33.7958 13.3158 32.6336 12.1822 31.459C13.3705 30.2297 14.5736 29.0129 15.7915 27.8086C17.0575 26.8215 18.4931 26.2883 20.0982 26.209C20.4689 26.2505 20.8107 26.3736 21.1236 26.5782C21.3985 26.8857 21.672 27.1865 21.9439 27.4805C23.5845 27.5078 25.2251 27.5352 26.8658 27.5625C27.4475 27.7396 27.5842 28.0952 27.2759 28.6289C27.1457 28.6996 27.009 28.7544 26.8658 28.793C25.3347 28.834 23.8035 28.8477 22.272 28.834C22.272 29.2715 22.272 29.709 22.272 30.1465C24.0821 30.1849 25.8868 30.1439 27.6861 30.0235C28.2615 29.7352 28.6443 29.284 28.8345 28.67C30.217 27.4652 31.6115 26.2757 33.0181 25.1016C33.1913 25.0323 33.3553 24.9639 33.5103 24.8965ZM9.72122 31.2129C11.8482 33.2032 13.9264 35.2539 15.9556 37.3653C15.2446 38.1309 14.5064 38.8691 13.7408 39.5801C11.6627 37.5566 9.61188 35.5059 7.58841 33.4278C8.3011 32.6878 9.01206 31.9495 9.72122 31.2129Z" fill="white"/>
</g>
</g>
<defs>
<clipPath id="clip0_227_388">
<rect width="42" height="42" fill="white"/>
</clipPath>
</defs>
</svg>
