<svg width="24" height="24" viewBox="0 0 24 24" fill="none" xmlns="http://www.w3.org/2000/svg">
<g clip-path="url(#clip0_158_424)">
<path d="M17.79 5.94996C17.6963 6.04293 17.6219 6.15353 17.5711 6.27538C17.5203 6.39724 17.4942 6.52795 17.4942 6.65996C17.4942 6.79197 17.5203 6.92268 17.5711 7.04454C17.6219 7.1664 17.6963 7.277 17.79 7.36996L21.42 11H1C0.734783 11 0.480429 11.1053 0.292893 11.2929C0.105357 11.4804 0 11.7347 0 12H0C0 12.2652 0.105357 12.5195 0.292893 12.7071C0.480429 12.8946 0.734783 13 1 13H21.41L17.79 16.62C17.6728 16.7057 17.5757 16.8159 17.5054 16.9429C17.4351 17.07 17.3933 17.2108 17.3829 17.3556C17.3725 17.5004 17.3938 17.6458 17.4452 17.7815C17.4967 17.9173 17.5771 18.0402 17.6809 18.1418C17.7846 18.2433 17.9093 18.3211 18.0461 18.3696C18.183 18.4181 18.3287 18.4363 18.4733 18.4228C18.6178 18.4093 18.7577 18.3645 18.8832 18.2915C19.0087 18.2184 19.1168 18.119 19.2 18L23.12 14.08C23.6818 13.5175 23.9974 12.755 23.9974 11.96C23.9974 11.165 23.6818 10.4025 23.12 9.83996L19.2 5.91996C19.0087 5.73764 18.753 5.63845 18.4888 5.64408C18.2246 5.6497 17.9734 5.75967 17.79 5.94996Z" fill="white"/>
</g>
<defs>
<clipPath id="clip0_158_424">
<rect width="24" height="24" fill="white" transform="matrix(0 -1 1 0 0 24)"/>
</clipPath>
</defs>
</svg>
