<svg width="46" height="46" viewBox="0 0 46 46" fill="none" xmlns="http://www.w3.org/2000/svg">
<g id="Youtube">
<circle id="Oval" cx="23" cy="23" r="23" fill="#F52929"/>
<path id="Youtube_2" fill-rule="evenodd" clip-rule="evenodd" d="M32.5538 15.982C33.1761 16.695 33.3957 18.3088 33.3957 18.3088C33.3957 18.3088 33.6154 20.2228 33.6154 22.1367V23.9006C33.6154 25.7771 33.3957 27.6911 33.3957 27.6911C33.3957 27.6911 33.1761 29.3049 32.5538 30.0179C31.788 30.8744 30.9228 30.9504 30.4936 30.988C30.4715 30.99 30.4505 30.9918 30.4308 30.9937C27.4658 31.2564 23 31.2564 23 31.2564C23 31.2564 17.4727 31.2188 15.7889 31.0312C15.6994 31.0101 15.5892 30.9942 15.4639 30.9762C14.9229 30.8982 14.1001 30.7798 13.4462 30.0179C12.8239 29.3049 12.6043 27.6911 12.6043 27.6911C12.6043 27.6911 12.3846 25.8147 12.3846 23.9007V22.1368C12.3846 20.2228 12.6043 18.3088 12.6043 18.3088C12.6043 18.3088 12.7873 16.6951 13.4462 15.982C14.212 15.1254 15.0772 15.0495 15.5064 15.0118C15.5285 15.0099 15.5495 15.0081 15.5692 15.0062C18.5342 14.7811 23 14.7435 23 14.7435C23 14.7435 27.4658 14.7811 30.4308 15.0062C30.4613 15.0091 30.4949 15.0117 30.5311 15.0145C30.9717 15.0492 31.8097 15.115 32.5538 15.982ZM20.4377 27.3534V19.2096L27.3926 23.3754L20.4377 27.3534Z" fill="white"/>
</g>
</svg>
