<svg width="153" height="78" viewBox="0 0 153 78" fill="none" xmlns="http://www.w3.org/2000/svg">
<g clip-path="url(#clip0_227_527)">
<path opacity="0.955" fill-rule="evenodd" clip-rule="evenodd" d="M152.922 33.5923C152.922 34.4047 152.922 35.2173 152.922 36.0298C152.212 37.4741 151.399 38.8707 150.484 40.2192C148.773 40.774 147.047 41.2818 145.305 41.7426C146.809 43.2204 147.241 44.9723 146.6 46.9985C145.458 49.181 144.239 51.3138 142.943 53.3969C141.725 54.8564 140.177 55.4405 138.297 55.1489C137.399 54.8526 136.536 54.4717 135.707 54.0063C133.826 57.5532 131.135 58.3402 127.633 56.3676C123.329 53.8732 119.038 51.3595 114.76 48.8266C113.699 50.617 112.658 52.4197 111.637 54.2348C113.209 56.5596 113.793 59.124 113.389 61.9282C112.364 66.7619 109.444 69.7326 104.629 70.8403C99.4248 71.4376 95.5655 69.4572 93.0508 64.8989C90.0551 64.8227 87.059 64.7973 84.0625 64.8227C84.0879 66.7531 84.0625 68.6828 83.9863 70.6118C82.9717 73.2534 81.0421 74.3706 78.1973 73.9633C77.3594 73.9379 76.5215 73.9126 75.6836 73.8872C75.4 73.6791 75.1461 73.4506 74.9219 73.2016C74.9219 62.5376 74.9219 51.8735 74.9219 41.2094C75.1461 40.9605 75.4 40.732 75.6836 40.5239C77.3594 40.4223 79.0352 40.4223 80.7109 40.5239C82.4121 41.0064 83.5039 42.0981 83.9863 43.7993C84.0625 47.7599 84.0879 51.7209 84.0625 55.6821C87.059 55.7075 90.0551 55.6821 93.0508 55.6059C95.284 51.416 98.7879 49.3848 103.562 49.5122C104.608 47.7799 105.624 46.0279 106.609 44.2563C101.602 41.306 96.5743 38.3861 91.5273 35.4966C89.4923 34.0633 88.8575 32.159 89.623 29.7837C89.9144 29.1499 90.2445 28.5405 90.6133 27.9555C87.7806 26.708 86.6888 24.5752 87.3379 21.5571C90.2187 16.3532 93.2147 11.2243 96.3262 6.17038C99.2471 3.61899 102.472 3.18735 106 4.87546C120.753 13.4452 135.53 21.9765 150.332 30.4692C151.625 31.1759 152.488 32.2169 152.922 33.5923ZM100.82 7.08444C102.247 6.88602 103.567 7.16531 104.781 7.92233C119.534 16.4921 134.311 25.0234 149.113 33.5161C149.666 33.9807 149.844 34.5647 149.646 35.268C149.304 36.0032 148.923 36.7141 148.504 37.4008C141.006 39.504 133.49 41.5606 125.957 43.5708C125.459 43.7556 124.951 43.8063 124.434 43.7231C113.262 37.2739 102.09 30.8246 90.918 24.3755C90.365 23.9108 90.1872 23.3269 90.3848 22.6235C93.0253 18.0532 95.6661 13.4829 98.3066 8.91257C99.0118 8.09314 99.8497 7.48377 100.82 7.08444ZM93.3555 29.479C103.483 35.3809 113.639 41.2462 123.824 47.0747C124.281 47.1763 124.738 47.1763 125.195 47.0747C129.347 45.9099 133.511 44.8435 137.688 43.8755C135.853 47.1125 134 50.3371 132.127 53.5493C131.838 53.9912 131.431 54.2452 130.908 54.311C118.387 47.2758 105.92 40.1409 93.5078 32.9067C92.9128 32.607 92.5573 32.1246 92.4414 31.4594C92.7499 30.7972 93.0546 30.1371 93.3555 29.479ZM141.648 43.3423C142.25 43.6634 142.834 44.0188 143.4 44.4087C143.626 44.8965 143.677 45.4044 143.553 45.9321C142.499 47.6847 141.483 49.4621 140.506 51.2641C140.076 51.8983 139.492 52.1269 138.754 51.9497C138.328 51.7516 137.922 51.5231 137.535 51.2641C137.37 51.1324 137.345 50.98 137.459 50.8071C138.936 48.3599 140.333 45.8715 141.648 43.3423ZM77.9688 43.4946C78.8141 43.4317 79.6266 43.5586 80.4062 43.8755C80.7268 44.1865 80.9045 44.5674 80.9395 45.018C81.041 53.143 81.041 61.2681 80.9395 69.393C80.846 69.9438 80.5667 70.3755 80.1016 70.688C79.403 70.8746 78.6921 70.9508 77.9688 70.9165C77.9688 61.7759 77.9688 52.6352 77.9688 43.4946ZM109.352 45.9321C110.247 46.2785 111.111 46.7101 111.941 47.227C111.072 48.7377 110.183 50.2357 109.275 51.7212C108.542 51.1144 107.755 50.6066 106.914 50.1977C107.792 48.8125 108.604 47.3906 109.352 45.9321ZM102.648 52.6352C107.952 53.2918 110.465 56.2878 110.189 61.6235C110.135 61.9446 110.033 62.2493 109.885 62.5376C105.695 60.0746 101.506 57.6118 97.3164 55.1489C98.7973 53.6463 100.575 52.8084 102.648 52.6352ZM95.4883 58.1196C95.8716 58.1584 96.2271 58.2855 96.5547 58.5005C100.49 60.7472 104.4 63.0324 108.285 65.3559C106.349 67.3046 104.013 68.0663 101.277 67.6411C97.512 66.5674 95.4808 64.079 95.1836 60.1762C95.3067 59.4924 95.4083 58.8068 95.4883 58.1196ZM84.0625 58.729C86.7539 58.729 89.4453 58.729 92.1367 58.729C91.9336 59.7447 91.9336 60.7602 92.1367 61.7759C89.4453 61.7759 86.7539 61.7759 84.0625 61.7759C84.0625 60.7602 84.0625 59.7447 84.0625 58.729Z" fill="white"/>
<path opacity="0.936" fill-rule="evenodd" clip-rule="evenodd" d="M95.0332 21.0996C95.5065 21.0769 95.9636 21.1531 96.4043 21.3281C104.834 26.2031 113.264 31.0781 121.693 35.9531C122.748 37.4085 122.418 38.3987 120.703 38.9238C120.143 38.7582 119.61 38.5297 119.104 38.2383C110.953 33.4771 102.777 28.7544 94.5762 24.0703C94.0035 23.5001 93.8257 22.8145 94.043 22.0137C94.2706 21.585 94.6006 21.2803 95.0332 21.0996Z" fill="white"/>
<path opacity="0.883" fill-rule="evenodd" clip-rule="evenodd" d="M135.557 28.7168C137.484 28.7613 138.068 29.6753 137.309 31.459C136.162 32.2102 135.248 32.0071 134.567 30.8496C134.291 29.8283 134.621 29.1173 135.557 28.7168Z" fill="white"/>
<path opacity="0.921" fill-rule="evenodd" clip-rule="evenodd" d="M139.67 30.8496C141.496 31.5344 143.223 32.423 144.85 33.5156C145.865 34.4297 145.865 35.3438 144.85 36.2578C144.407 36.4586 143.95 36.5095 143.479 36.4102C141.955 35.5468 140.432 34.6836 138.908 33.8203C137.912 32.4826 138.166 31.4923 139.67 30.8496Z" fill="white"/>
<path opacity="0.891" fill-rule="evenodd" clip-rule="evenodd" d="M123.979 37.8574C125.906 37.9019 126.49 38.816 125.731 40.5996C124.583 41.3508 123.669 41.1477 122.989 39.9902C122.792 39.0133 123.122 38.3023 123.979 37.8574Z" fill="white"/>
</g>
<g clip-path="url(#clip1_227_527)">
<path opacity="0.955" fill-rule="evenodd" clip-rule="evenodd" d="M0.078125 33.5923C0.078125 34.4047 0.078125 35.2173 0.078125 36.0298C0.788353 37.4741 1.6008 38.8707 2.51562 40.2192C4.2266 40.774 5.95311 41.2818 7.69531 41.7426C6.19077 43.2204 5.75903 44.9723 6.40039 46.9985C7.54205 49.181 8.7608 51.3138 10.0566 53.3969C11.2746 54.8564 12.8234 55.4405 14.7031 55.1489C15.6007 54.8526 16.4639 54.4717 17.293 54.0063C19.174 57.5532 21.8654 58.3402 25.3672 56.3676C29.6707 53.8732 33.9617 51.3595 38.2402 48.8266C39.3005 50.617 40.3415 52.4197 41.3633 54.2348C39.7909 56.5596 39.207 59.124 39.6113 61.9282C40.6364 66.7619 43.5563 69.7326 48.3711 70.8403C53.5752 71.4376 57.4345 69.4572 59.9492 64.8989C62.9449 64.8227 65.941 64.7973 68.9375 64.8227C68.9121 66.7531 68.9375 68.6828 69.0137 70.6118C70.0283 73.2534 71.9579 74.3706 74.8027 73.9633C75.6406 73.9379 76.4785 73.9126 77.3164 73.8872C77.6 73.6791 77.8539 73.4506 78.0781 73.2016C78.0781 62.5376 78.0781 51.8735 78.0781 41.2094C77.8539 40.9605 77.6 40.732 77.3164 40.5239C75.6406 40.4223 73.9648 40.4223 72.2891 40.5239C70.5879 41.0064 69.4961 42.0981 69.0137 43.7993C68.9375 47.7599 68.9121 51.7209 68.9375 55.6821C65.941 55.7075 62.9449 55.6821 59.9492 55.6059C57.716 51.416 54.2121 49.3848 49.4375 49.5122C48.3915 47.7799 47.3758 46.0279 46.3906 44.2563C51.3983 41.306 56.4257 38.3861 61.4727 35.4966C63.5077 34.0633 64.1425 32.159 63.377 29.7837C63.0856 29.1499 62.7555 28.5405 62.3867 27.9555C65.2194 26.708 66.3112 24.5752 65.6621 21.5571C62.7813 16.3532 59.7853 11.2243 56.6738 6.17038C53.7529 3.61899 50.5283 3.18735 47 4.87546C32.2475 13.4452 17.4701 21.9765 2.66797 30.4692C1.37518 31.1759 0.512001 32.2169 0.078125 33.5923ZM52.1797 7.08444C50.7528 6.88602 49.4326 7.16531 48.2188 7.92233C33.4662 16.4921 18.6889 25.0234 3.88672 33.5161C3.33371 33.9807 3.15593 34.5647 3.35352 35.268C3.69568 36.0032 4.07654 36.7141 4.49609 37.4008C11.9943 39.504 19.5099 41.5606 27.043 43.5708C27.5408 43.7556 28.0486 43.8063 28.5664 43.7231C39.7382 37.2739 50.9102 30.8246 62.082 24.3755C62.635 23.9108 62.8128 23.3269 62.6152 22.6235C59.9747 18.0532 57.3339 13.4829 54.6934 8.91257C53.9882 8.09314 53.1503 7.48377 52.1797 7.08444ZM59.6445 29.479C49.5173 35.3809 39.3612 41.2462 29.1758 47.0747C28.7188 47.1763 28.2617 47.1763 27.8047 47.0747C23.6529 45.9099 19.4887 44.8435 15.3125 43.8755C17.1467 47.1125 19.0003 50.3371 20.873 53.5493C21.1625 53.9912 21.5686 54.2452 22.0918 54.311C34.6132 47.2758 47.0801 40.1409 59.4922 32.9067C60.0872 32.607 60.4427 32.1246 60.5586 31.4594C60.2501 30.7972 59.9454 30.1371 59.6445 29.479ZM11.3516 43.3423C10.7501 43.6634 10.1662 44.0188 9.59961 44.4087C9.37368 44.8965 9.3228 45.4044 9.44727 45.9321C10.5015 47.6847 11.517 49.4621 12.4941 51.2641C12.9239 51.8983 13.508 52.1269 14.2461 51.9497C14.6719 51.7516 15.078 51.5231 15.4648 51.2641C15.6298 51.1324 15.6551 50.98 15.541 50.8071C14.0637 48.3599 12.6672 45.8715 11.3516 43.3423ZM75.0312 43.4946C74.1859 43.4317 73.3734 43.5586 72.5938 43.8755C72.2732 44.1865 72.0955 44.5674 72.0605 45.018C71.959 53.143 71.959 61.2681 72.0605 69.393C72.154 69.9438 72.4333 70.3755 72.8984 70.688C73.597 70.8746 74.3079 70.9508 75.0312 70.9165C75.0312 61.7759 75.0312 52.6352 75.0312 43.4946ZM43.6484 45.9321C42.7525 46.2785 41.8892 46.7101 41.0586 47.227C41.928 48.7377 42.8168 50.2357 43.7246 51.7212C44.4575 51.1144 45.2447 50.6066 46.0859 50.1977C45.2083 48.8125 44.3958 47.3906 43.6484 45.9321ZM50.3516 52.6352C45.0485 53.2918 42.5348 56.2878 42.8105 61.6235C42.8654 61.9446 42.967 62.2493 43.1152 62.5376C47.3047 60.0746 51.4941 57.6118 55.6836 55.1489C54.2027 53.6463 52.4254 52.8084 50.3516 52.6352ZM57.5117 58.1196C57.1284 58.1584 56.7729 58.2855 56.4453 58.5005C52.5101 60.7472 48.6001 63.0324 44.7148 65.3559C46.651 67.3046 48.9869 68.0663 51.7227 67.6411C55.488 66.5674 57.5192 64.079 57.8164 60.1762C57.6933 59.4924 57.5917 58.8068 57.5117 58.1196ZM68.9375 58.729C66.2461 58.729 63.5547 58.729 60.8633 58.729C61.0664 59.7447 61.0664 60.7602 60.8633 61.7759C63.5547 61.7759 66.2461 61.7759 68.9375 61.7759C68.9375 60.7602 68.9375 59.7447 68.9375 58.729Z" fill="white"/>
<path opacity="0.936" fill-rule="evenodd" clip-rule="evenodd" d="M57.9668 21.0996C57.4935 21.0769 57.0364 21.1531 56.5957 21.3281C48.1661 26.2031 39.7363 31.0781 31.3066 35.9531C30.252 37.4085 30.5821 38.3987 32.2969 38.9238C32.8566 38.7582 33.3898 38.5297 33.8965 38.2383C42.0473 33.4771 50.2232 28.7544 58.4238 24.0703C58.9965 23.5001 59.1743 22.8145 58.957 22.0137C58.7294 21.585 58.3994 21.2803 57.9668 21.0996Z" fill="white"/>
<path opacity="0.883" fill-rule="evenodd" clip-rule="evenodd" d="M17.4429 28.7168C15.5157 28.7613 14.9318 29.6753 15.6909 31.459C16.8384 32.2102 17.7525 32.0071 18.4331 30.8496C18.709 29.8283 18.379 29.1173 17.4429 28.7168Z" fill="white"/>
<path opacity="0.921" fill-rule="evenodd" clip-rule="evenodd" d="M13.3301 30.8496C11.5036 31.5344 9.77697 32.423 8.1504 33.5156C7.13472 34.4297 7.13472 35.3438 8.1504 36.2578C8.59311 36.4586 9.05014 36.5095 9.52149 36.4102C11.0449 35.5468 12.5684 34.6836 14.0918 33.8203C15.0884 32.4826 14.8345 31.4923 13.3301 30.8496Z" fill="white"/>
<path opacity="0.891" fill-rule="evenodd" clip-rule="evenodd" d="M29.0211 37.8574C27.094 37.9019 26.51 38.816 27.2691 40.5996C28.4166 41.3508 29.3307 41.1477 30.0113 39.9902C30.208 39.0133 29.8779 38.3023 29.0211 37.8574Z" fill="white"/>
</g>
<defs>
<clipPath id="clip0_227_527">
<rect width="78" height="78" fill="white" transform="translate(75)"/>
</clipPath>
<clipPath id="clip1_227_527">
<rect width="78" height="78" fill="white" transform="matrix(-1 0 0 1 78 0)"/>
</clipPath>
</defs>
</svg>
