<svg width="53" height="53" viewBox="0 0 53 53" fill="none" xmlns="http://www.w3.org/2000/svg">
<path opacity="0.965" fill-rule="evenodd" clip-rule="evenodd" d="M24.792 3.77831C31.8719 3.42761 37.3409 6.18803 41.1993 12.0596C44.0741 17.2198 44.3846 22.5336 42.1309 28.001C40.7494 30.9352 38.7308 33.3334 36.0752 35.1953C38.4734 37.5934 40.8714 39.9915 43.2696 42.3896C44.4471 44.3437 44.2572 46.1552 42.7002 47.8242C41.841 48.4875 40.8749 48.7291 39.8018 48.5488C35.5206 46.892 31.0867 45.9777 26.5 45.8057C22.0238 45.9694 17.6934 46.8493 13.5088 48.4453C11.3929 48.8799 9.92639 48.1035 9.10941 46.1162C8.6974 44.7928 8.86992 43.5506 9.62699 42.3896C12.0251 39.9915 14.4232 37.5934 16.8213 35.1953C11.059 30.931 8.62637 25.2204 9.52347 18.0635C10.7026 12.2001 13.9634 7.93873 19.3057 5.27928C21.0725 4.50146 22.9013 4.00113 24.792 3.77831ZM26.3448 4.91698C31.9499 5.1052 36.3839 7.45155 39.6465 11.956C42.6288 16.61 43.181 21.5443 41.3028 26.7588C39.0725 31.9215 35.2253 35.1823 29.7608 36.541C23.8158 37.5957 18.7608 35.9567 14.5957 31.624C10.412 26.6045 9.44593 21.0147 11.6973 14.8545C14.6034 8.64704 19.4859 5.33454 26.3448 4.91698ZM24.0674 17.2353C25.4774 17.385 26.0123 18.1442 25.6719 19.5127C24.8855 20.527 24.0229 20.5961 23.084 19.7197C22.5175 18.5406 22.8453 17.7124 24.0674 17.2353Z" fill="white"/>
<path opacity="0.984" fill-rule="evenodd" clip-rule="evenodd" d="M24.9991 11.542C29.0324 11.1354 32.1897 12.5846 34.4707 15.8897C36.0849 18.7587 36.2919 21.7261 35.0918 24.792C33.3099 28.3326 30.4287 30.1959 26.4483 30.3819C21.9379 30.1314 18.9186 27.8885 17.3907 23.6534C16.3505 19.1808 17.679 15.6095 21.376 12.9395C22.5108 12.2569 23.7186 11.7911 24.9991 11.542ZM24.0674 17.2354C22.8453 17.7125 22.5175 18.5406 23.084 19.7198C24.0229 20.5961 24.8855 20.5271 25.6719 19.5127C26.0123 18.1443 25.4774 17.3851 24.0674 17.2354Z" fill="white"/>
<circle cx="26.0002" cy="21" r="4" fill="#0D3D89"/>
</svg>
