<svg width="42" height="42" viewBox="0 0 42 42" fill="none" xmlns="http://www.w3.org/2000/svg">
<g clip-path="url(#clip0_227_636)">
<path opacity="0.958" fill-rule="evenodd" clip-rule="evenodd" d="M4.63281 -0.0410156C13.2188 -0.0410156 21.8047 -0.0410156 30.3906 -0.0410156C31.5794 0.420666 32.1536 1.29567 32.1133 2.58398C33.5707 2.52443 34.4321 3.20802 34.6973 4.63477C34.752 6.52148 34.752 8.4082 34.6973 10.2949C34.3578 10.8714 33.9477 10.9261 33.4668 10.459C33.4395 8.54495 33.4121 6.63086 33.3848 4.7168C33.2103 4.06471 32.7864 3.79127 32.1133 3.89648C32.127 9.93948 32.1133 15.9825 32.0723 22.0254C31.6966 22.6461 31.2864 22.6735 30.8418 22.1074C30.8145 15.4082 30.7871 8.70901 30.7598 2.00977C30.582 1.53091 30.2402 1.27114 29.7344 1.23047C25.6601 1.21679 21.586 1.20313 17.5117 1.18945C13.2978 1.1767 9.08687 1.21771 4.87891 1.3125C4.51437 1.48564 4.30929 1.77275 4.26367 2.17383C4.23633 4.36133 4.20898 6.54883 4.18164 8.73633C3.90106 9.08521 3.55926 9.15362 3.15625 8.94141C3.07749 8.825 3.00913 8.70196 2.95117 8.57227C2.89648 6.38476 2.89648 4.19727 2.95117 2.00977C3.11141 0.98901 3.67196 0.305417 4.63281 -0.0410156Z" fill="white"/>
<path opacity="0.935" fill-rule="evenodd" clip-rule="evenodd" d="M11.1166 2.58423C15.3823 2.57056 19.648 2.58423 23.9135 2.62525C24.3448 2.81033 24.6319 3.12478 24.7748 3.5686C24.8296 4.22485 24.8296 4.8811 24.7748 5.53735C24.6319 5.98118 24.3448 6.29563 23.9135 6.48071C19.6752 6.5354 15.437 6.5354 11.1987 6.48071C10.3569 6.12104 10.0288 5.47846 10.2143 4.55298C10.0509 3.66436 10.3517 3.00811 11.1166 2.58423ZM11.5268 3.89673C11.5268 4.33423 11.5268 4.77173 11.5268 5.20923C15.519 5.20923 19.5111 5.20923 23.5034 5.20923C23.5034 4.77173 23.5034 4.33423 23.5034 3.89673C19.5111 3.89673 15.519 3.89673 11.5268 3.89673Z" fill="white"/>
<path opacity="0.913" fill-rule="evenodd" clip-rule="evenodd" d="M11.5237 7.91574C12.2841 7.7602 12.5986 8.06098 12.4671 8.81808C11.5535 9.81378 10.6102 10.7845 9.63702 11.7302C9.36361 11.8943 9.09012 11.8943 8.81671 11.7302C8.39286 11.3063 7.96906 10.8826 7.54523 10.4587C7.29351 9.67104 7.58062 9.3293 8.40656 9.43332C8.66758 9.70804 8.94099 9.96783 9.22687 10.2126C10.0216 9.47261 10.7872 8.70701 11.5237 7.91574Z" fill="white"/>
<path opacity="0.95" fill-rule="evenodd" clip-rule="evenodd" d="M14.8883 7.91625C15.6544 7.90259 16.4201 7.91627 17.1852 7.95727C17.6163 8.32985 17.6163 8.71261 17.1852 9.1057C16.4196 9.16042 15.6539 9.16042 14.8883 9.1057C14.6532 8.99144 14.5439 8.80006 14.5602 8.53149C14.5544 8.25537 14.6638 8.05025 14.8883 7.91625Z" fill="white"/>
<path opacity="0.983" fill-rule="evenodd" clip-rule="evenodd" d="M19.1559 7.91626C21.8631 7.90259 24.5701 7.91626 27.277 7.95727C27.5121 8.07153 27.6214 8.26292 27.6051 8.53149C27.6214 8.80006 27.5121 8.99144 27.277 9.10571C24.57 9.16043 21.8629 9.16043 19.1559 9.10571C18.7241 8.7063 18.7241 8.30984 19.1559 7.91626Z" fill="white"/>
<path opacity="0.927" fill-rule="evenodd" clip-rule="evenodd" d="M14.8872 10.5413C17.567 10.5276 20.2468 10.5413 22.9263 10.5823C23.4924 11.0269 23.465 11.4371 22.8443 11.8128C20.2193 11.8675 17.5943 11.8675 14.9693 11.8128C14.5945 11.6043 14.4714 11.2898 14.6001 10.8694C14.713 10.7705 14.8087 10.6612 14.8872 10.5413Z" fill="white"/>
<path opacity="0.903" fill-rule="evenodd" clip-rule="evenodd" d="M24.9768 10.5412C25.7429 10.5276 26.5086 10.5412 27.2737 10.5823C27.5782 10.7957 27.6738 11.0828 27.5608 11.4436C27.4925 11.6213 27.3694 11.7444 27.1917 11.8127C26.4198 11.8879 25.6542 11.8606 24.8948 11.7307C24.5567 11.3113 24.584 10.9149 24.9768 10.5412Z" fill="white"/>
<path opacity="0.944" fill-rule="evenodd" clip-rule="evenodd" d="M32.5234 41.9585C24.1015 41.9585 15.6797 41.9585 7.25781 41.9585C6.0811 41.49 5.53422 40.615 5.61719 39.3335C4.12524 39.4288 3.23656 38.7453 2.95117 37.2827C2.89648 28.5874 2.89648 19.8921 2.95117 11.1968C3.2428 10.5478 3.65296 10.4658 4.18164 10.9507C4.20898 19.6733 4.23633 28.396 4.26367 37.1187C4.31416 37.552 4.54658 37.8391 4.96094 37.98C11.5509 38.0483 18.1408 38.0347 24.7305 37.939C23.2228 34.444 23.8244 31.3679 26.5352 28.7105C27.7742 27.6948 29.1961 27.107 30.8008 26.9468C30.7872 26.0987 30.8008 25.251 30.8418 24.4038C31.1223 24.0549 31.4642 23.9865 31.8672 24.1987C31.9657 24.2728 32.0341 24.3685 32.0723 24.4858C32.1133 25.3057 32.1269 26.126 32.1133 26.9468C32.5286 27.0023 32.9388 27.0844 33.3438 27.1929C33.4121 22.3533 33.4531 17.5134 33.4668 12.6733C33.7707 12.3057 34.1262 12.251 34.5332 12.5093C34.5879 12.6186 34.6426 12.7281 34.6973 12.8374C34.7246 17.7866 34.752 22.7359 34.7793 27.6851C37.458 29.1653 38.8663 31.4485 39.0039 34.5347C38.659 38.611 36.4988 41.0856 32.5234 41.9585ZM30.6367 28.2593C33.6518 28.0933 35.8256 29.3511 37.1582 32.0327C38.1968 34.9742 37.5269 37.4488 35.1484 39.4566C32.5732 41.1443 30.0303 41.0895 27.5195 39.2925C25.0686 36.9843 24.59 34.3183 26.084 31.2944C27.1597 29.6153 28.6772 28.6036 30.6367 28.2593ZM34 32.1148C34.6154 32.2792 34.8205 32.662 34.6152 33.2632C33.3414 34.5644 32.0426 35.8359 30.7188 37.0776C30.4888 37.1396 30.27 37.1123 30.0625 36.9956C29.3061 36.2392 28.5542 35.4873 27.8066 34.7398C27.6333 34.1846 27.8384 33.8291 28.4219 33.6733C28.595 33.7188 28.759 33.7872 28.9141 33.8784C29.2969 34.2613 29.6797 34.644 30.0625 35.0269C30.27 35.1435 30.4888 35.1708 30.7188 35.1089C31.7281 34.1816 32.7124 33.2246 33.6719 32.2378C33.7997 32.2206 33.909 32.1796 34 32.1148ZM6.92969 39.3335C13.1915 39.3198 19.4532 39.3335 25.7148 39.3745C26.1582 39.8729 26.6504 40.3104 27.1914 40.687C20.7657 40.7417 14.3398 40.7417 7.91406 40.687C7.15876 40.5601 6.83064 40.1089 6.92969 39.3335Z" fill="white"/>
<path opacity="0.905" fill-rule="evenodd" clip-rule="evenodd" d="M11.689 13.8223C12.4771 13.8596 12.7095 14.2424 12.3863 14.9707C11.4976 15.8593 10.6089 16.7481 9.72024 17.6367C9.45758 17.7584 9.18409 17.7858 8.89993 17.7188C8.36673 17.2949 7.88821 16.8164 7.46438 16.2832C7.31661 15.7306 7.52169 15.4025 8.07962 15.2988C8.55573 15.487 8.95227 15.7878 9.26907 16.2012C10.0671 15.3894 10.8738 14.5964 11.689 13.8223Z" fill="white"/>
<path opacity="0.903" fill-rule="evenodd" clip-rule="evenodd" d="M14.9693 13.8222C15.7416 13.788 16.5072 13.829 17.2662 13.9453C17.6088 14.3516 17.5814 14.7344 17.1841 15.0937C16.4185 15.1484 15.6528 15.1484 14.8873 15.0937C14.4389 14.6371 14.4663 14.2133 14.9693 13.8222Z" fill="white"/>
<path opacity="0.927" fill-rule="evenodd" clip-rule="evenodd" d="M19.318 13.8225C21.9432 13.8088 24.5682 13.8225 27.193 13.8635C27.5678 14.072 27.6909 14.3865 27.5622 14.8069C27.4664 14.9026 27.3708 14.9983 27.275 15.094C24.5953 15.1487 21.9157 15.1487 19.236 15.094C18.6765 14.6368 18.7038 14.2129 19.318 13.8225Z" fill="white"/>
<path opacity="0.982" fill-rule="evenodd" clip-rule="evenodd" d="M14.8883 16.5296C17.5955 16.5159 20.3025 16.5296 23.0094 16.5706C23.4469 16.9534 23.4469 17.3362 23.0094 17.719C20.3024 17.7737 17.5953 17.7737 14.8883 17.719C14.6532 17.6047 14.5439 17.4134 14.5602 17.1448C14.5544 16.8687 14.6638 16.6636 14.8883 16.5296Z" fill="white"/>
<path opacity="0.954" fill-rule="evenodd" clip-rule="evenodd" d="M24.9804 16.5295C25.7464 16.5159 26.5121 16.5295 27.2772 16.5705C27.5817 16.7767 27.6774 17.0638 27.5643 17.4319C27.5233 17.5822 27.4276 17.678 27.2772 17.719C26.5116 17.7737 25.746 17.7737 24.9804 17.719C24.5482 17.3228 24.5482 16.9263 24.9804 16.5295Z" fill="white"/>
<path opacity="0.914" fill-rule="evenodd" clip-rule="evenodd" d="M11.6055 19.8102C12.3152 19.7681 12.6023 20.0962 12.4668 20.7946C11.4962 21.7653 10.5254 22.7361 9.55472 23.7067C9.33594 23.7614 9.11725 23.7614 8.89847 23.7067C8.4473 23.2556 7.99613 22.8044 7.54496 22.3532C7.28123 21.6084 7.541 21.2665 8.32425 21.3278C8.63712 21.5723 8.93793 21.832 9.2266 22.1071C10.0234 21.3375 10.8164 20.5718 11.6055 19.8102Z" fill="white"/>
<path opacity="0.905" fill-rule="evenodd" clip-rule="evenodd" d="M14.9693 19.8108C15.6807 19.7972 16.3917 19.8108 17.1021 19.8518C17.4598 20.0344 17.5829 20.3215 17.4712 20.7131C17.4029 20.8909 17.2798 21.0139 17.1021 21.0823C16.3911 21.137 15.6802 21.137 14.9693 21.0823C14.5945 20.8738 14.4714 20.5593 14.6001 20.1389C14.7147 20.0101 14.8378 19.9007 14.9693 19.8108Z" fill="white"/>
<path opacity="0.927" fill-rule="evenodd" clip-rule="evenodd" d="M19.2371 19.8108C21.8896 19.7971 24.5419 19.8108 27.1942 19.8518C27.5817 20.0516 27.7047 20.3661 27.5633 20.7952C27.4637 20.9222 27.3407 21.0179 27.1942 21.0823C24.5692 21.137 21.9442 21.137 19.3192 21.0823C18.693 20.6969 18.6657 20.273 19.2371 19.8108Z" fill="white"/>
<path opacity="0.928" fill-rule="evenodd" clip-rule="evenodd" d="M15.052 22.4358C17.6498 22.4221 20.2475 22.4358 22.845 22.4768C23.4671 22.8566 23.4945 23.2668 22.927 23.7073C20.2473 23.762 17.5677 23.762 14.8879 23.7073C14.5391 23.4267 14.4707 23.0849 14.6829 22.6819C14.7985 22.5768 14.9215 22.4948 15.052 22.4358Z" fill="white"/>
<path opacity="0.905" fill-rule="evenodd" clip-rule="evenodd" d="M25.1426 22.4355C25.8876 22.4015 26.6258 22.4425 27.3574 22.5585C27.7084 22.9714 27.6811 23.3542 27.2754 23.707C26.5098 23.7617 25.7441 23.7617 24.9785 23.707C24.5053 23.1984 24.56 22.7745 25.1426 22.4355Z" fill="white"/>
<path opacity="0.913" fill-rule="evenodd" clip-rule="evenodd" d="M11.6064 25.7984C12.3675 25.7062 12.6546 26.0343 12.4677 26.7827C11.5244 27.7261 10.581 28.6695 9.63764 29.6128C9.36423 29.7769 9.09073 29.7769 8.81732 29.6128C8.39347 29.189 7.96967 28.7652 7.54584 28.3413C7.34519 27.9456 7.41355 27.6038 7.75092 27.316C8.008 27.2511 8.2541 27.2785 8.4892 27.398C8.72291 27.6454 8.969 27.8779 9.22748 28.0952C10.0243 27.3256 10.8173 26.56 11.6064 25.7984Z" fill="white"/>
<path opacity="0.905" fill-rule="evenodd" clip-rule="evenodd" d="M14.8893 25.799C15.6554 25.7854 16.4211 25.799 17.1862 25.8401C17.6644 26.3327 17.6097 26.7429 17.0221 27.0705C16.2776 27.1454 15.5393 27.1181 14.8073 26.9885C14.4608 26.559 14.4881 26.1625 14.8893 25.799Z" fill="white"/>
<path opacity="0.925" fill-rule="evenodd" clip-rule="evenodd" d="M19.2364 25.7991C21.3693 25.7854 23.5021 25.7991 25.6348 25.8401C26.113 26.3328 26.0583 26.7429 25.4707 27.0706C23.4473 27.1253 21.4239 27.1253 19.4004 27.0706C18.7019 26.7249 18.6472 26.301 19.2364 25.7991Z" fill="white"/>
<path opacity="0.926" fill-rule="evenodd" clip-rule="evenodd" d="M14.9688 28.4241C17.6213 28.4104 20.2736 28.4241 22.9259 28.4651C23.4728 28.8753 23.4728 29.2854 22.9259 29.6956C20.2735 29.7503 17.6211 29.7503 14.9688 29.6956C14.5813 29.4958 14.4583 29.1813 14.5997 28.7522C14.7143 28.6234 14.8373 28.514 14.9688 28.4241Z" fill="white"/>
</g>
<defs>
<clipPath id="clip0_227_636">
<rect width="42" height="42" fill="white"/>
</clipPath>
</defs>
</svg>
