<svg width="42" height="42" viewBox="0 0 42 42" fill="none" xmlns="http://www.w3.org/2000/svg">
<g clip-path="url(#clip0_227_724)">
<path opacity="0.949" fill-rule="evenodd" clip-rule="evenodd" d="M41.9609 15.9549C41.9609 16.201 41.9609 16.4471 41.9609 16.6931C41.3978 17.6517 40.7142 18.5266 39.9102 19.3181C40.437 19.6156 40.9428 19.9437 41.4277 20.3025C41.5494 20.5652 41.5768 20.8387 41.5098 21.1228C40.4368 23.0776 39.3431 25.0189 38.2285 26.9471C37.9465 27.3228 37.5774 27.4459 37.1211 27.3162C35.4532 26.3728 33.7851 25.4295 32.1172 24.4861C30.6971 26.7826 28.7831 27.3158 26.375 26.0857C24.6454 25.0773 22.909 24.0792 21.166 23.0916C19.5562 25.4223 17.9566 27.7602 16.3672 30.1053C16.6566 32.4793 15.6722 34.0652 13.4141 34.8631C12.132 35.1808 10.9562 34.9621 9.88672 34.2068C8.49137 34.1385 7.09685 34.1522 5.70312 34.2478C5.15244 36.3981 3.79893 37.7379 1.64258 38.2674C1.61524 38.6775 1.58789 39.0877 1.56055 39.4978C1.26071 39.8895 0.864233 40.0126 0.371094 39.867C0.218379 39.7549 0.0816606 39.6319 -0.0390625 39.4978C-0.0390625 34.2752 -0.0390625 29.0525 -0.0390625 23.8299C0.494223 23.2857 1.02743 23.2857 1.56055 23.8299C1.60151 24.2665 1.61518 24.704 1.60156 25.1424C3.79315 25.5838 5.16034 26.8963 5.70312 29.0799C6.63161 29.1755 7.5613 29.1891 8.49219 29.1209C9.24105 27.7164 10.4031 26.8824 11.9785 26.6189C13.4095 24.5045 14.8723 22.4127 16.3672 20.3435C14.2071 19.1131 12.0468 17.8826 9.88672 16.6521C8.25897 15.1843 7.9445 13.4753 8.94336 11.5252C10.4134 8.99558 11.8625 6.45259 13.291 3.89627C14.621 1.98106 16.3573 1.50255 18.5 2.46072C26.1562 6.80838 33.8125 11.156 41.4688 15.5037C41.6757 15.6153 41.8398 15.7656 41.9609 15.9549ZM16.0391 3.73221C16.7539 3.63243 17.4101 3.78282 18.0078 4.18338C25.2952 8.36041 32.596 12.5166 39.9102 16.6521C37.3751 19.7815 34.1758 20.7386 30.3125 19.5232C24.3003 16.189 18.312 12.812 12.3477 9.39236C12.2588 9.32141 12.2452 9.23938 12.3066 9.14627C13.1543 7.66971 14.002 6.19315 14.8496 4.71658C15.1401 4.24736 15.5365 3.91924 16.0391 3.73221ZM11.2812 10.8689C16.9428 14.0006 22.5756 17.1862 28.1797 20.4256C29.2595 21.0361 30.408 21.46 31.625 21.6971C31.1465 22.5447 30.6679 23.3924 30.1895 24.24C29.519 24.9866 28.7123 25.1917 27.7695 24.8553C22.1641 21.656 16.5586 18.4568 10.9531 15.2576C10.1401 14.5822 9.90772 13.7482 10.2559 12.7556C10.6414 12.1485 10.9831 11.5196 11.2812 10.8689ZM38.1875 20.4666C38.6561 20.6326 39.0935 20.865 39.5 21.1638C38.7301 22.5815 37.9098 23.9623 37.0391 25.3064C35.6584 24.5205 34.2912 23.7138 32.9375 22.8865C33.1563 22.5311 33.375 22.1755 33.5938 21.8201C35.2399 21.7222 36.7711 21.271 38.1875 20.4666ZM17.8438 21.2049C18.4564 21.525 19.058 21.8667 19.6484 22.2303C18.2676 24.2127 16.8867 26.1951 15.5059 28.1775C15.0688 27.6382 14.5356 27.2281 13.9062 26.9471C15.2196 25.0306 16.5321 23.1165 17.8438 21.2049ZM1.60156 26.865C3.01348 27.3067 3.82013 28.2637 4.02148 29.7361C4.07617 31.0213 4.07617 32.3064 4.02148 33.5916C3.82993 35.0273 3.05063 35.9843 1.68359 36.4627C1.60157 33.264 1.57423 30.0647 1.60156 26.865ZM11.8555 28.4236C13.2884 28.3262 14.2317 28.955 14.6855 30.3103C14.8485 31.7757 14.2332 32.7464 12.8398 33.2224C11.3287 33.3901 10.3581 32.7475 9.92773 31.2947C9.83602 29.8359 10.4786 28.8789 11.8555 28.4236ZM5.78516 30.8846C6.57813 30.8846 7.37109 30.8846 8.16406 30.8846C8.19316 31.4128 8.27522 31.9323 8.41016 32.4431C7.53515 32.4431 6.66016 32.4431 5.78516 32.4431C5.78516 31.9236 5.78516 31.4041 5.78516 30.8846Z" fill="white"/>
<path opacity="0.929" fill-rule="evenodd" clip-rule="evenodd" d="M15.2162 7.50601C15.4638 7.49251 15.7099 7.50617 15.9545 7.54702C17.7927 8.52738 19.5837 9.58009 21.3275 10.7052C21.5955 11.6875 21.2264 12.1113 20.2201 11.9767C18.4078 10.9567 16.6167 9.90395 14.8471 8.81851C14.5989 8.26414 14.722 7.82663 15.2162 7.50601Z" fill="white"/>
<path opacity="0.881" fill-rule="evenodd" clip-rule="evenodd" d="M33.182 15.8732C34.0836 15.7495 34.4801 16.1323 34.3715 17.0217C33.9212 17.7077 33.4016 17.7623 32.8129 17.1857C32.5809 16.6403 32.704 16.2028 33.182 15.8732Z" fill="white"/>
</g>
<defs>
<clipPath id="clip0_227_724">
<rect width="42" height="42" fill="white"/>
</clipPath>
</defs>
</svg>
