<svg width="42" height="42" viewBox="0 0 42 42" fill="none" xmlns="http://www.w3.org/2000/svg">
<g clip-path="url(#clip0_227_688)">
<path opacity="0.954" fill-rule="evenodd" clip-rule="evenodd" d="M2.09375 -0.0410156C14.6718 -0.0410156 27.25 -0.0410156 39.8281 -0.0410156C40.8945 0.314453 41.6055 1.02539 41.9609 2.0918C41.9609 14.2051 41.9609 26.3183 41.9609 38.4316C41.894 38.5665 41.7846 38.6621 41.6328 38.7188C41.077 38.7942 40.5301 38.7668 39.9922 38.6367C39.6556 38.2312 39.683 37.8485 40.0742 37.4883C40.2637 37.4475 40.4551 37.4339 40.6484 37.4473C40.6484 36.1895 40.6484 34.9316 40.6484 33.6738C38.9255 33.6875 37.2029 33.6738 35.4805 33.6328C34.9848 33.3962 34.8617 33.0271 35.1113 32.5254C35.1854 32.4269 35.2811 32.3585 35.3984 32.3203C37.1482 32.2793 38.8982 32.2656 40.6484 32.2793C40.6484 29.2168 40.6484 26.1543 40.6484 23.0918C30.6679 23.1055 20.6874 23.0918 10.707 23.0508C10.1217 22.6466 10.0944 22.2091 10.625 21.7383C20.6328 21.6973 30.6406 21.6836 40.6484 21.6973C40.6484 20.4668 40.6484 19.2363 40.6484 18.0059C27.5234 18.0059 14.3984 18.0059 1.27344 18.0059C1.27344 20.9863 1.27344 23.9668 1.27344 26.9473C13.961 26.9336 26.6485 26.9473 39.3359 26.9883C39.7698 27.2762 39.8518 27.6454 39.582 28.0957C39.4865 28.1846 39.3771 28.253 39.2539 28.3008C26.5938 28.3418 13.9336 28.3555 1.27344 28.3418C1.27344 31.377 1.27344 34.4121 1.27344 37.4473C1.86619 37.509 2.07127 37.8371 1.88867 38.4316C1.85798 38.5068 1.81696 38.5752 1.76562 38.6367C1.28265 38.766 0.79046 38.7933 0.289062 38.7188C0.137286 38.6621 0.0279107 38.5665 -0.0390625 38.4316C-0.0390625 26.3183 -0.0390625 14.2051 -0.0390625 2.0918C0.316406 1.02539 1.02734 0.314453 2.09375 -0.0410156ZM2.75 1.27148C14.8906 1.25781 27.0312 1.27148 39.1719 1.3125C40.0332 1.40821 40.5117 1.88672 40.6074 2.74805C40.6484 7.36906 40.6621 11.9902 40.6484 16.6113C40.3203 16.6113 39.9922 16.6113 39.6641 16.6113C39.6778 12.1542 39.6641 7.69718 39.623 3.24023C39.4727 2.76172 39.1582 2.44726 38.6797 2.29688C26.8672 2.24218 15.0547 2.24218 3.24219 2.29688C2.76367 2.44726 2.44922 2.76172 2.29883 3.24023C2.25781 7.69718 2.24414 12.1542 2.25781 16.6113C1.92969 16.6113 1.60156 16.6113 1.27344 16.6113C1.25976 11.9902 1.27344 7.36906 1.31445 2.74805C1.4248 1.88586 1.90332 1.39367 2.75 1.27148ZM28.2617 3.56836C31.5977 3.56836 34.9336 3.56836 38.2695 3.56836C38.2695 7.91602 38.2695 12.2637 38.2695 16.6113C37.2578 16.6113 36.2461 16.6113 35.2344 16.6113C35.2071 14.8331 35.2344 13.0558 35.3164 11.2793C36.8973 10.1254 37.3485 8.62148 36.6699 6.76758C36.1766 5.71369 35.37 5.0301 34.25 4.7168C33.8125 4.77149 33.5664 5.01758 33.5117 5.45508C33.7033 6.22156 33.8947 6.98718 34.0859 7.75195C33.8244 8.30944 33.3869 8.51452 32.7734 8.36719C32.6561 8.32904 32.5604 8.26063 32.4863 8.16211C32.2149 7.29534 31.9688 6.42034 31.748 5.53711C31.4422 5.18561 31.0731 5.11726 30.6406 5.33203C29.3196 6.47272 28.9231 7.88092 29.4512 9.55664C29.7622 10.3053 30.2543 10.9068 30.9277 11.3613C30.9688 13.1111 30.9824 14.8611 30.9688 16.6113C28.9724 16.625 26.9764 16.6113 24.9805 16.5703C24.8744 15.8794 24.7924 15.1821 24.7344 14.4785C25.1556 14.5666 25.47 14.4299 25.6777 14.0684C25.6863 13.4517 25.6453 12.8365 25.5547 12.2227C25.5603 11.9593 25.6969 11.8226 25.9648 11.8125C26.4599 11.6972 26.8974 11.8066 27.2773 12.1406C27.8092 12.6449 28.2467 13.2191 28.5898 13.8633C29.0207 13.962 29.4581 13.962 29.9023 13.8633C30.2773 13.7616 30.4687 13.5155 30.4766 13.125C30.1201 10.3079 28.5615 8.58523 25.8008 7.95703C23.6609 8.00144 21.5281 8.16551 19.4023 8.44922C18.9665 8.70376 18.8298 9.0729 18.9922 9.55664C18.5407 9.60315 18.0895 9.65787 17.6387 9.7207C17.5703 9.69339 17.5019 9.66599 17.4336 9.63867C17.2991 9.24369 17.0257 9.05223 16.6133 9.06445C15.8413 9.12245 15.0757 9.21818 14.3164 9.35156C14.1534 9.45976 14.0577 9.61012 14.0293 9.80273C14.141 11.3876 14.2778 12.9736 14.4395 14.5605C14.5122 14.9672 14.7583 15.1859 15.1777 15.2168C15.9293 15.1239 16.6812 15.0281 17.4336 14.9297C17.7527 14.7701 17.8894 14.5103 17.8438 14.1504C18.364 14.1011 18.8836 14.0464 19.4023 13.9863C19.3745 14.2842 19.4429 14.5576 19.6074 14.8066C19.9186 14.9025 20.2195 15.0119 20.5098 15.1348C20.5671 15.6261 20.6081 16.1182 20.6328 16.6113C17.5429 16.6113 14.4532 16.6113 11.3633 16.6113C11.3538 15.8712 11.3401 15.133 11.3223 14.3965C13.3612 12.6564 13.9627 10.5235 13.127 7.99805C12.3847 6.59959 11.3183 5.53318 9.92773 4.79883C9.50027 4.84347 9.26787 5.0759 9.23047 5.49609C9.48468 6.63597 9.75809 7.77073 10.0508 8.90039C9.76695 9.14706 9.45253 9.25641 9.10742 9.22852C8.76847 8.12967 8.41303 7.03593 8.04102 5.94727C7.7672 5.71609 7.45275 5.64773 7.09766 5.74219C6.22864 6.14621 5.69544 6.81613 5.49805 7.75195C5.40438 8.7337 5.34969 9.71808 5.33398 10.7051C4.80488 10.8772 4.58613 11.2326 4.67773 11.7715C5.53796 12.8359 6.35828 13.9296 7.13867 15.0527C7.17965 15.5716 7.19332 16.0911 7.17969 16.6113C6.00391 16.6113 4.82812 16.6113 3.65234 16.6113C3.66052 12.2907 3.63317 7.97041 3.57031 3.65039C11.8145 3.67769 20.0451 3.65034 28.2617 3.56836ZM30.7227 7.42383C31.2235 9.70159 32.536 10.3441 34.6602 9.35156C35.1512 8.93009 35.4383 8.39688 35.5215 7.75195C35.6647 9.01039 35.1589 9.89904 34.0039 10.418C33.9526 10.4795 33.9115 10.5479 33.8809 10.623C33.8398 12.6189 33.8261 14.615 33.8398 16.6113C33.3477 16.6113 32.8555 16.6113 32.3633 16.6113C32.377 14.6424 32.3633 12.6737 32.3223 10.7051C32.2579 10.5586 32.1622 10.4355 32.0352 10.3359C30.8318 9.71955 30.3942 8.7488 30.7227 7.42383ZM7.01562 7.58789C7.06627 7.59697 7.10729 7.62431 7.13867 7.66992C7.33882 8.37974 7.57125 9.077 7.83594 9.76172C7.50183 9.94145 7.14637 10.0645 6.76953 10.1309C6.72274 9.26609 6.80477 8.41838 7.01562 7.58789ZM11.1992 7.66992C12.3484 8.99128 12.4714 10.4132 11.5684 11.9355C11.1639 12.5276 10.6854 13.0472 10.1328 13.4941C10.0439 13.5897 9.97556 13.6991 9.92773 13.8223C9.92011 14.7515 9.93372 15.6813 9.96875 16.6113C9.50388 16.6113 9.03909 16.6113 8.57422 16.6113C8.604 15.9493 8.56298 15.293 8.45117 14.6426C7.92059 13.6338 7.27802 12.7042 6.52344 11.8535C7.34044 11.4851 8.18809 11.1707 9.06641 10.9102C9.832 10.582 10.5977 10.2539 11.3633 9.92578C11.4847 9.74146 11.5394 9.53638 11.5273 9.31055C11.4438 8.75798 11.3345 8.21108 11.1992 7.66992ZM25.3086 9.31055C26.4805 9.45902 27.4376 9.99223 28.1797 10.9102C27.7708 10.7073 27.3334 10.5432 26.8672 10.418C26.375 10.3423 25.8964 10.3833 25.4316 10.541C25.3703 10.1324 25.3293 9.72226 25.3086 9.31055ZM23.4219 9.39258C23.5859 9.39258 23.75 9.39258 23.9141 9.39258C24.0185 10.6509 24.1279 11.9086 24.2422 13.166C23.0658 13.2686 21.89 13.378 20.7148 13.4941C20.7386 13.1302 20.6976 12.7747 20.5918 12.4277C20.1256 11.9901 19.7018 12.0311 19.3203 12.5508C18.7783 12.6569 18.2314 12.7253 17.6797 12.7559C17.6707 12.2143 17.6159 11.6811 17.5156 11.1562C18.0522 11.0354 18.5854 10.9944 19.1152 11.0332C19.2116 11.6222 19.5534 11.8273 20.1406 11.6484C20.291 11.6074 20.3867 11.5117 20.4277 11.3613C20.4823 10.8121 20.4686 10.2652 20.3867 9.7207C21.4141 9.64811 22.4258 9.53876 23.4219 9.39258ZM15.4648 10.541C15.6836 10.541 15.9023 10.541 16.1211 10.541C16.2031 11.58 16.2852 12.6191 16.3672 13.6582C16.1957 13.6433 16.0316 13.6707 15.875 13.7402C15.8182 13.6972 15.7772 13.6425 15.752 13.5762C15.6538 12.5642 15.558 11.5524 15.4648 10.541ZM23.1758 14.6426C23.3084 14.7319 23.3768 14.8687 23.3809 15.0527C23.4544 15.57 23.4955 16.0895 23.5039 16.6113C23.0117 16.6113 22.5195 16.6113 22.0273 16.6113C22.0051 16.006 21.9504 15.4045 21.8633 14.8066C22.3162 14.7835 22.7536 14.7288 23.1758 14.6426ZM5.45703 37.4473C5.67578 37.4473 5.89453 37.4473 6.11328 37.4473C6.11328 37.8574 6.11328 38.2676 6.11328 38.6777C5.50615 38.6673 4.90459 38.6126 4.30859 38.5137C4.22745 38.2178 4.2001 37.917 4.22656 37.6113C4.65263 37.5916 5.06279 37.5369 5.45703 37.4473Z" fill="white"/>
<path opacity="0.929" fill-rule="evenodd" clip-rule="evenodd" d="M2.7488 21.6975C4.8271 21.6838 6.90523 21.6975 8.98317 21.7385C9.40227 22.0147 9.498 22.3838 9.27028 22.846C9.15388 22.9247 9.03083 22.993 8.90114 23.051C6.8777 23.1058 4.85427 23.1058 2.83083 23.051C2.47653 22.9589 2.31246 22.7265 2.33864 22.3538C2.34241 22.0497 2.47913 21.831 2.7488 21.6975Z" fill="white"/>
<path opacity="0.938" fill-rule="evenodd" clip-rule="evenodd" d="M2.66433 32.2796C13.055 32.2659 23.4456 32.2796 33.8362 32.3206C34.2304 32.574 34.3261 32.9158 34.1233 33.346C34.0151 33.509 33.8647 33.6047 33.6721 33.6331C23.3909 33.6878 13.1096 33.6878 2.82839 33.6331C2.36943 33.44 2.21904 33.0981 2.37722 32.6077C2.49006 32.5088 2.58577 32.3995 2.66433 32.2796Z" fill="white"/>
<path opacity="0.948" fill-rule="evenodd" clip-rule="evenodd" d="M38.7578 41.959C35.2852 41.959 31.8125 41.959 28.3398 41.959C27.3247 41.5152 26.2993 41.0777 25.2637 40.6465C25.1335 40.9136 24.9284 41.0914 24.6484 41.1797C23.6582 41.2566 22.6739 41.2293 21.6953 41.0977C21.545 41.0567 21.4492 40.9609 21.4082 40.8106C21.3672 40.1275 21.3536 39.4439 21.3672 38.7598C16.7461 38.7598 12.125 38.7598 7.50391 38.7598C7.51748 39.0891 7.50381 39.4172 7.46289 39.7442C7.39854 39.8907 7.30283 40.0137 7.17578 40.1133C5.91462 40.1076 4.65681 40.0255 3.40235 39.8672C3.18119 39.8106 3.00346 39.6876 2.86914 39.4981C2.81445 38.5684 2.81445 37.6387 2.86914 36.709C2.9375 36.5312 3.06055 36.4082 3.23828 36.3399C4.51887 36.1519 5.80403 36.0426 7.09375 36.0117C7.27149 36.0801 7.39454 36.2031 7.46289 36.3809C7.50381 36.7079 7.51748 37.036 7.50391 37.3653C12.125 37.3653 16.7461 37.3653 21.3672 37.3653C21.3536 36.7084 21.3672 36.0522 21.4082 35.3965C21.518 35.1837 21.6958 35.0607 21.9414 35.0274C22.8438 34.9726 23.7461 34.9726 24.6484 35.0274C24.9903 35.0957 25.1953 35.3008 25.2637 35.6426C26.328 35.131 27.4081 34.6525 28.5039 34.2071C31.8672 34.1523 35.2305 34.1523 38.5938 34.2071C38.8179 34.2397 38.9682 34.3627 39.0449 34.5762C39.0996 36.9278 39.0996 39.2793 39.0449 41.6309C38.932 41.7297 38.8364 41.8391 38.7578 41.959ZM28.832 35.5606C31.7852 35.5606 34.7383 35.5606 37.6914 35.5606C37.6914 37.2559 37.6914 38.9512 37.6914 40.6465C34.7381 40.6602 31.785 40.6465 28.832 40.6055C27.6596 40.119 26.4837 39.6405 25.3047 39.1699C25.2091 38.5154 25.1954 37.8592 25.2637 37.2012C26.4544 36.6398 27.6438 36.0929 28.832 35.5606ZM22.7617 36.3809C23.1172 36.3809 23.4727 36.3809 23.8281 36.3809C23.8281 37.5293 23.8281 38.6778 23.8281 39.8262C23.4727 39.8262 23.1172 39.8262 22.7617 39.8262C22.7617 38.6778 22.7617 37.5293 22.7617 36.3809ZM5.45313 37.4473C5.05889 37.5369 4.64873 37.5916 4.22266 37.6113C4.1962 37.917 4.22354 38.2178 4.30469 38.5137C4.90069 38.6126 5.50225 38.6673 6.10938 38.6778C6.10938 38.2676 6.10938 37.8574 6.10938 37.4473C5.89062 37.4473 5.67188 37.4473 5.45313 37.4473Z" fill="white"/>
</g>
<defs>
<clipPath id="clip0_227_688">
<rect width="42" height="42" fill="white"/>
</clipPath>
</defs>
</svg>
