<svg width="42" height="42" viewBox="0 0 42 42" fill="none" xmlns="http://www.w3.org/2000/svg">
<path opacity="0.99" fill-rule="evenodd" clip-rule="evenodd" d="M5.61719 1.92798C15.8438 1.91431 26.0704 1.92798 36.2969 1.969C38.2771 2.41797 39.4939 3.63476 39.9473 5.61939C40.002 15.846 40.002 26.0725 39.9473 36.2991C39.2794 38.7991 37.6524 40.0158 35.0664 39.9495C34.916 39.9084 34.8203 39.8127 34.7793 39.6624C34.7123 39.3782 34.7397 39.1047 34.8613 38.842C35.4375 38.6618 36.0254 38.5115 36.625 38.3909C37.8811 37.7902 38.551 36.7922 38.6348 35.3967C38.6895 25.7718 38.6895 16.1467 38.6348 6.52173C38.4297 4.56665 37.3496 3.48657 35.3945 3.2815C30.8009 3.24048 26.2071 3.2268 21.6133 3.24048C21.6133 8.92795 21.6133 14.6155 21.6133 20.303C26.3165 20.2893 31.0196 20.303 35.7227 20.344C35.9701 20.4694 36.0794 20.6745 36.0508 20.9592C36.0794 21.244 35.9701 21.449 35.7227 21.5745C31.0196 21.6155 26.3165 21.6292 21.6133 21.6155C21.6133 27.303 21.6133 32.9905 21.6133 38.678C25.004 38.6643 28.3946 38.678 31.7852 38.719C32.0326 38.8444 32.1419 39.0495 32.1133 39.3342C32.1419 39.619 32.0326 39.824 31.7852 39.9495C23.0625 40.0042 14.3398 40.0042 5.61719 39.9495C3.63477 39.4983 2.41797 38.2815 1.9668 36.2991C1.91211 31.0764 1.91211 25.8538 1.9668 20.6311C1.9975 20.556 2.03851 20.4876 2.08985 20.426C8.1534 20.3035 14.2237 20.2625 20.3008 20.303C20.3008 14.6155 20.3008 8.92795 20.3008 3.24048C15.707 3.2268 11.1132 3.24048 6.51953 3.2815C4.85319 3.39645 3.80046 4.25777 3.36133 5.86548C3.25528 9.69158 3.20059 13.5197 3.19727 17.3499C3.07187 17.5973 2.8668 17.7066 2.58203 17.678C2.29727 17.7066 2.09219 17.5973 1.9668 17.3499C1.91211 13.4397 1.91211 9.52957 1.9668 5.61939C2.43282 3.63583 3.64962 2.40536 5.61719 1.92798ZM3.23828 21.6155C8.92576 21.6155 14.6133 21.6155 20.3008 21.6155C20.3008 27.303 20.3008 32.9905 20.3008 38.678C15.707 38.6917 11.1132 38.678 6.51953 38.637C4.56446 38.4319 3.48438 37.3518 3.2793 35.3967C3.23828 30.8031 3.22461 26.2093 3.23828 21.6155Z" fill="white"/>
<path opacity="0.985" fill-rule="evenodd" clip-rule="evenodd" d="M11.442 7.17786C11.6624 7.1644 11.8812 7.17807 12.0982 7.21888C12.2486 7.25989 12.3443 7.3556 12.3853 7.50598C12.4263 8.70881 12.44 9.91196 12.4263 11.1154C13.6297 11.1017 14.8329 11.1154 16.0357 11.1564C16.2831 11.2818 16.3925 11.4869 16.3638 11.7716C16.3925 12.0563 16.2831 12.2614 16.0357 12.3868C14.8329 12.4279 13.6297 12.4416 12.4263 12.4279C12.44 13.6313 12.4263 14.8344 12.3853 16.0372C12.2599 16.2846 12.0548 16.394 11.7701 16.3654C11.4854 16.394 11.2803 16.2846 11.1549 16.0372C11.1138 14.8344 11.1001 13.6313 11.1138 12.4279C9.91044 12.4416 8.70729 12.4279 7.50446 12.3868C7.25706 12.2614 7.14768 12.0563 7.17634 11.7716C7.14768 11.4869 7.25706 11.2818 7.50446 11.1564C8.70729 11.1154 9.91044 11.1017 11.1138 11.1154C11.1001 9.91196 11.1138 8.70881 11.1549 7.50598C11.2115 7.35421 11.3071 7.24483 11.442 7.17786Z" fill="white"/>
<path opacity="0.986" fill-rule="evenodd" clip-rule="evenodd" d="M25.8795 11.1155C28.7233 11.1018 31.5671 11.1155 34.4107 11.1565C34.6581 11.2819 34.7675 11.487 34.7388 11.7717C34.7675 12.0565 34.6581 12.2615 34.4107 12.387C31.5669 12.4417 28.7232 12.4417 25.8795 12.387C25.632 12.2615 25.5227 12.0565 25.5513 11.7717C25.5334 11.4792 25.6429 11.2605 25.8795 11.1155Z" fill="white"/>
<path opacity="0.909" fill-rule="evenodd" clip-rule="evenodd" d="M8.6533 26.7009C8.93861 26.675 9.2121 26.716 9.47362 26.8239C10.2267 27.5908 10.9923 28.3427 11.7705 29.0798C12.5486 28.3427 13.3142 27.5908 14.0674 26.8239C14.4963 26.6089 14.8654 26.6773 15.1748 27.029C15.2418 27.3132 15.2144 27.5867 15.0928 27.8493C14.3259 28.6025 13.574 29.3681 12.8369 30.1462C13.574 30.9243 14.3259 31.6899 15.0928 32.4431C15.3078 32.872 15.2394 33.2412 14.8877 33.5505C14.6035 33.6175 14.33 33.5901 14.0674 33.4685C13.3142 32.7016 12.5486 31.9497 11.7705 31.2126C10.9923 31.9497 10.2267 32.7016 9.47362 33.4685C8.47554 33.7829 8.13378 33.4412 8.44823 32.4431C9.21505 31.6899 9.96695 30.9243 10.7041 30.1462C9.96695 29.3681 9.21505 28.6025 8.44823 27.8493C8.23642 27.408 8.30475 27.0252 8.6533 26.7009Z" fill="white"/>
<path opacity="0.986" fill-rule="evenodd" clip-rule="evenodd" d="M25.8795 26.8655C28.7233 26.8518 31.5671 26.8655 34.4107 26.9065C34.6581 27.0319 34.7675 27.237 34.7388 27.5217C34.7675 27.8065 34.6581 28.0115 34.4107 28.137C31.5669 28.1917 28.7232 28.1917 25.8795 28.137C25.632 28.0115 25.5227 27.8065 25.5513 27.5217C25.5334 27.2292 25.6429 27.0105 25.8795 26.8655Z" fill="white"/>
<path opacity="0.986" fill-rule="evenodd" clip-rule="evenodd" d="M25.8795 32.1155C28.7233 32.1018 31.5671 32.1155 34.4107 32.1565C34.6581 32.2819 34.7675 32.487 34.7388 32.7717C34.7675 33.0565 34.6581 33.2615 34.4107 33.387C31.5669 33.4417 28.7232 33.4417 25.8795 33.387C25.632 33.2615 25.5227 33.0565 25.5513 32.7717C25.5334 32.4792 25.6429 32.2605 25.8795 32.1155Z" fill="white"/>
</svg>
