<svg width="46" height="46" viewBox="0 0 46 46" fill="none" xmlns="http://www.w3.org/2000/svg">
<g id="Instagram">
<circle id="Oval" cx="23" cy="23" r="23" fill="url(#paint0_linear_158_396)"/>
<path id="Instagram_2" fill-rule="evenodd" clip-rule="evenodd" d="M27.0523 12.9744H18.9478C15.654 12.9744 12.9744 15.654 12.9744 18.9478V27.0523C12.9744 30.346 15.654 33.0256 18.9478 33.0256H27.0523C30.346 33.0256 33.0256 30.346 33.0256 27.0523V18.9478C33.0256 15.654 30.346 12.9744 27.0523 12.9744ZM31.0085 27.0523C31.0085 29.2372 29.2372 31.0085 27.0523 31.0085H18.9478C16.7628 31.0085 14.9915 29.2372 14.9915 27.0523V18.9478C14.9915 16.7628 16.7628 14.9915 18.9478 14.9915H27.0523C29.2372 14.9915 31.0085 16.7628 31.0085 18.9478V27.0523ZM17.814 22.9999C17.814 20.1404 20.1404 17.814 23 17.814C25.8596 17.814 28.186 20.1404 28.186 22.9999C28.186 25.8595 25.8596 28.1859 23 28.1859C20.1404 28.1859 17.814 25.8594 17.814 22.9999ZM23 26.1688C21.2499 26.1688 19.8312 24.7501 19.8312 23C19.8312 21.2498 21.2499 19.8311 23 19.8311C24.7501 19.8311 26.1688 21.2498 26.1688 23C26.1688 24.75 24.7501 26.1688 23 26.1688ZM28.196 19.0956C28.8823 19.0956 29.4387 18.5393 29.4387 17.853C29.4387 17.1667 28.8823 16.6103 28.196 16.6103C27.5097 16.6103 26.9534 17.1667 26.9534 17.853C26.9534 18.5393 27.5097 19.0956 28.196 19.0956Z" fill="white"/>
</g>
<defs>
<linearGradient id="paint0_linear_158_396" x1="0.153688" y1="-0.0768434" x2="7.18179e-07" y2="45.9232" gradientUnits="userSpaceOnUse">
<stop stop-color="#7024C4"/>
<stop offset="0.415461" stop-color="#C21975"/>
<stop offset="0.702206" stop-color="#C74C4D"/>
<stop offset="1" stop-color="#E09B3D"/>
</linearGradient>
</defs>
</svg>
