<svg width="16" height="17" viewBox="0 0 16 17" fill="none" xmlns="http://www.w3.org/2000/svg">
<g id="fi-rr-call-outgoing" clip-path="url(#clip0_158_380)">
<g id="Group 6">
<path id="Vector" d="M15.3832 11.6746C15.7696 12.062 15.9865 12.5868 15.9865 13.1339C15.9865 13.6811 15.7696 14.2059 15.3832 14.5933L14.7752 15.2933C9.31456 20.5186 -3.97144 7.23661 1.17523 1.75995L1.94123 1.09328C2.32929 0.717795 2.84946 0.509988 3.38942 0.514728C3.92938 0.519468 4.44582 0.736374 4.82723 1.11861C4.84723 1.13928 6.08256 2.74461 6.08256 2.74461C6.44901 3.12958 6.65306 3.64093 6.65231 4.17242C6.65157 4.70391 6.44609 5.21468 6.07856 5.59861L5.3059 6.56995C5.73313 7.60802 6.36127 8.55145 7.15424 9.34601C7.9472 10.1406 8.88935 10.7706 9.92656 11.1999L10.9032 10.4233C11.2871 10.056 11.7978 9.85059 12.3291 9.84985C12.8604 9.8491 13.3716 10.053 13.7566 10.4193C13.7566 10.4193 15.3626 11.6546 15.3832 11.6746ZM14.4666 12.6439C14.4666 12.6439 12.8712 11.4159 12.8506 11.3959C12.7132 11.2598 12.5276 11.1834 12.3342 11.1834C12.1408 11.1834 11.9552 11.2598 11.8179 11.3959C11.7999 11.4133 10.4552 12.4853 10.4552 12.4853C10.3646 12.5574 10.2568 12.6047 10.1423 12.6225C10.0279 12.6402 9.91078 12.6279 9.80256 12.5866C8.45804 12.0866 7.23682 11.3032 6.2218 10.2896C5.20678 9.27594 4.42171 8.05579 3.9199 6.71195C3.876 6.60269 3.86181 6.48376 3.87879 6.36725C3.89577 6.25073 3.94331 6.1408 4.01656 6.04861C4.01656 6.04861 5.0879 4.70395 5.1059 4.68595C5.24208 4.5486 5.31848 4.36302 5.31848 4.16961C5.31848 3.9762 5.24208 3.79062 5.1059 3.65328C5.0859 3.63328 3.8579 2.03728 3.8579 2.03728C3.71858 1.9122 3.5367 1.84514 3.34953 1.84985C3.16236 1.85456 2.98408 1.93068 2.85123 2.06261L2.08523 2.72928C-1.67744 7.25061 9.8379 18.1279 13.7999 14.3839L14.4079 13.6839C14.5512 13.5524 14.6376 13.3701 14.6485 13.1759C14.6595 12.9816 14.5942 12.7908 14.4666 12.6439Z" fill="#5041FF"/>
</g>
</g>
<defs>
<clipPath id="clip0_158_380">
<rect width="16" height="16" fill="white" transform="translate(0 0.5)"/>
</clipPath>
</defs>
</svg>
