<svg width="42" height="42" viewBox="0 0 42 42" fill="none" xmlns="http://www.w3.org/2000/svg">
<g id="free-icon-biometric-recognition-1087674 1" clip-path="url(#clip0_227_415)">
<g id="Group">
<path id="Vector" opacity="0.944" fill-rule="evenodd" clip-rule="evenodd" d="M3.81372 3.41113C5.56372 3.41113 7.31372 3.41113 9.06372 3.41113C9.06372 3.90428 9.06372 4.39743 9.06372 4.89058C7.66919 4.89058 6.27466 4.89058 4.88012 4.89058C4.88012 6.28785 4.88012 7.68511 4.88012 9.08237C4.38794 9.08237 3.89575 9.08237 3.40356 9.08237C3.3899 7.38351 3.40356 5.68489 3.44458 3.98648C3.48928 3.7377 3.61233 3.54592 3.81372 3.41113Z" fill="white"/>
</g>
<g id="Group_2">
<path id="Vector_2" opacity="0.944" fill-rule="evenodd" clip-rule="evenodd" d="M32.8516 3.41138C34.6018 3.39769 36.3518 3.41138 38.1016 3.45248C38.3155 3.56577 38.4385 3.74385 38.4707 3.98673C38.5117 5.68514 38.5254 7.38376 38.5117 9.08262C38.0195 9.08262 37.5273 9.08262 37.0352 9.08262C37.0352 7.68536 37.0352 6.2881 37.0352 4.89084C35.6406 4.89084 34.2461 4.89084 32.8516 4.89084C32.8516 4.39769 32.8516 3.90454 32.8516 3.41138Z" fill="white"/>
</g>
<g id="Group_3">
<path id="Vector_3" opacity="0.933" fill-rule="evenodd" clip-rule="evenodd" d="M41.957 20.5887C41.957 20.8353 41.957 21.0819 41.957 21.3285C39.7314 23.5174 37.5165 25.7229 35.3125 27.9449C29.5344 32.8236 22.9446 34.4127 15.543 32.712C12.1937 31.7893 9.21327 30.2003 6.60156 27.9449C4.39755 25.7229 2.1827 23.5174 -0.0429688 21.3285C-0.0429688 21.0819 -0.0429688 20.8353 -0.0429688 20.5887C2.64741 18.0987 5.3271 15.5919 7.99609 13.0682C13.483 8.7191 19.6353 7.40405 26.4531 9.12299C29.2131 9.94376 31.7014 11.2588 33.918 13.0682C36.5869 15.5919 39.2667 18.0987 41.957 20.5887ZM20.7109 9.82162C25.3081 9.8817 29.3822 11.3474 32.9336 14.2189C35.3398 16.4654 37.7461 18.7121 40.1523 20.9586C38.1563 22.9586 36.1601 24.9586 34.1641 26.9586C28.9629 31.3094 23.0292 32.7889 16.3633 31.397C13.1322 30.5867 10.2611 29.1073 7.75 26.9586C5.75391 24.9586 3.75781 22.9586 1.76172 20.9586C4.39219 18.4323 7.07187 15.9665 9.80078 13.5613C13.065 11.2246 16.7017 9.97803 20.7109 9.82162Z" fill="white"/>
</g>
<g id="Group_4">
<path id="Vector_4" opacity="0.935" fill-rule="evenodd" clip-rule="evenodd" d="M19.7268 11.137C24.9166 10.8785 28.4576 13.1524 30.3498 17.9589C31.4026 21.8911 30.5138 25.3021 27.6838 28.1918C24.7998 30.683 21.5185 31.3954 17.8401 30.3288C14.1864 28.9417 11.9852 26.3253 11.2366 22.4794C10.7601 18.1886 12.305 14.8599 15.8713 12.4931C17.0847 11.8015 18.3698 11.3494 19.7268 11.137ZM19.8909 12.6164C19.3178 12.7292 18.7436 12.8799 18.1682 13.0685C14.6546 14.5093 12.7952 17.1394 12.5901 20.9589C12.8638 25.1499 14.9966 27.8622 18.9885 29.0959C22.444 29.7776 25.3014 28.7776 27.5608 26.0959C29.6408 23.1367 29.8595 20.0409 28.217 16.8082C26.2831 13.7805 23.5077 12.3833 19.8909 12.6164ZM20.6291 19.6027C20.3171 19.7081 20.0573 19.8999 19.8498 20.1781C19.4538 20.9068 19.5768 21.5507 20.219 22.1096C21.3692 22.547 22.0802 22.1634 22.3518 20.9589C22.1749 20.0009 21.6007 19.5489 20.6291 19.6027Z" fill="white"/>
</g>
<g id="Group_5">
<path id="Vector_5" opacity="0.912" fill-rule="evenodd" clip-rule="evenodd" d="M20.9609 13.9313C21.479 13.9072 21.9849 13.9619 22.4785 14.0957C22.4482 14.5637 22.3798 15.0295 22.2734 15.493C21.8369 15.4535 21.3994 15.4262 20.9609 15.4108C20.9609 14.9176 20.9609 14.4245 20.9609 13.9313Z" fill="white"/>
</g>
<g id="Group_6">
<path id="Vector_6" opacity="0.872" fill-rule="evenodd" clip-rule="evenodd" d="M23.9102 14.5889C24.4279 14.7929 24.8928 15.0806 25.3047 15.4519C25.0492 15.8586 24.7484 16.2285 24.4023 16.5615C24.0343 16.3425 23.6788 16.1097 23.3359 15.8628C23.5395 15.4413 23.731 15.0166 23.9102 14.5889Z" fill="white"/>
</g>
<g id="Group_7">
<path id="Vector_7" opacity="0.867" fill-rule="evenodd" clip-rule="evenodd" d="M26.2891 16.4796C26.3708 16.4725 26.4391 16.5 26.4941 16.5618C26.7949 16.945 27.0547 17.3559 27.2734 17.7947C26.8726 18.0712 26.4489 18.3177 26.002 18.5344C25.7587 18.1701 25.5263 17.8003 25.3047 17.4248C25.6189 17.0963 25.947 16.7812 26.2891 16.4796Z" fill="white"/>
</g>
<g id="Group_8">
<path id="Vector_8" opacity="0.937" fill-rule="evenodd" clip-rule="evenodd" d="M20.3828 18.1238C22.4073 18.0016 23.5557 18.9468 23.8281 20.9594C23.574 22.9401 22.453 23.8716 20.4648 23.7539C18.9948 23.4041 18.2018 22.4726 18.0859 20.9594C18.2119 19.4784 18.9775 18.5332 20.3828 18.1238ZM20.6289 19.6032C20.3169 19.7086 20.0571 19.9003 19.8496 20.1786C19.4536 20.9073 19.5766 21.5512 20.2188 22.1101C21.369 22.5475 22.08 22.1639 22.3516 20.9594C22.1747 20.0014 21.6005 19.5494 20.6289 19.6032Z" fill="white"/>
</g>
<g id="Group_9">
<path id="Vector_9" opacity="0.875" fill-rule="evenodd" clip-rule="evenodd" d="M27.5234 19.2744C27.6328 19.2744 27.7422 19.2744 27.8516 19.2744C27.9063 19.8224 27.9609 20.3703 28.0156 20.9182C27.5234 20.9182 27.0312 20.9182 26.5391 20.9182C26.4979 20.5333 26.4432 20.1498 26.375 19.7676C26.4023 19.7127 26.4297 19.658 26.457 19.6032C26.8255 19.5046 27.181 19.3949 27.5234 19.2744Z" fill="white"/>
</g>
<g id="Group_10">
<path id="Vector_10" opacity="0.883" fill-rule="evenodd" clip-rule="evenodd" d="M14.8906 21.164C15.0632 21.1394 15.2273 21.1668 15.3828 21.2462C15.4416 21.6501 15.5237 22.0473 15.6289 22.438C15.1685 22.6013 14.7036 22.7519 14.2344 22.89C14.0478 22.3582 13.9384 21.8103 13.9062 21.2462C14.2509 21.2722 14.5791 21.2448 14.8906 21.164Z" fill="white"/>
</g>
<g id="Group_11">
<path id="Vector_11" opacity="0.877" fill-rule="evenodd" clip-rule="evenodd" d="M26.375 22.0684C26.8634 22.1717 27.3556 22.2539 27.8516 22.3149C27.7774 22.8312 27.627 23.3243 27.4004 23.7944C27.3544 23.8373 27.2997 23.8647 27.2363 23.8766C26.872 23.7009 26.5029 23.5366 26.1289 23.3834C26.1016 23.3286 26.0742 23.2739 26.0469 23.219C26.2063 22.8493 26.3158 22.4658 26.375 22.0684Z" fill="white"/>
</g>
<g id="Group_12">
<path id="Vector_12" opacity="0.863" fill-rule="evenodd" clip-rule="evenodd" d="M15.957 23.5479C16.2259 23.9005 16.4994 24.2567 16.7773 24.6163C16.4225 24.958 16.0533 25.2868 15.6699 25.6026C15.2951 25.2078 14.9807 24.7695 14.7266 24.2876C15.1284 24.0182 15.5385 23.7717 15.957 23.5479Z" fill="white"/>
</g>
<g id="Group_13">
<path id="Vector_13" opacity="0.867" fill-rule="evenodd" clip-rule="evenodd" d="M25.3867 24.2881C25.7901 24.585 26.1729 24.9 26.5352 25.2333C26.3859 25.4379 26.2356 25.6433 26.084 25.8497C25.8671 25.9985 25.662 26.1629 25.4688 26.3429C25.1125 25.9996 24.7844 25.6297 24.4844 25.2333C24.8572 24.9831 25.1579 24.6681 25.3867 24.2881Z" fill="white"/>
</g>
<g id="Group_14">
<path id="Vector_14" opacity="0.867" fill-rule="evenodd" clip-rule="evenodd" d="M17.5938 25.4385C17.988 25.6498 18.3708 25.8827 18.7422 26.1371C18.5532 26.555 18.3891 26.9797 18.25 27.4111C17.6836 27.2644 17.1914 26.9905 16.7734 26.5892C17.0477 26.2032 17.3211 25.8196 17.5938 25.4385Z" fill="white"/>
</g>
<g id="Group_15">
<path id="Vector_15" opacity="0.881" fill-rule="evenodd" clip-rule="evenodd" d="M23.3369 25.9313C23.4453 25.9173 23.5411 25.9447 23.624 26.0135C23.8186 26.4172 24.0237 26.8144 24.2392 27.2052C23.7452 27.4433 23.2393 27.6488 22.7217 27.8217C22.5186 27.3387 22.4228 26.8456 22.4346 26.3422C22.7645 26.2512 23.0652 26.1142 23.3369 25.9313Z" fill="white"/>
</g>
<g id="Group_16">
<path id="Vector_16" opacity="0.887" fill-rule="evenodd" clip-rule="evenodd" d="M19.8906 26.4248C20.3243 26.494 20.7618 26.5215 21.2031 26.507C21.2031 27.0001 21.2031 27.4933 21.2031 27.9864C20.645 28.0223 20.0981 27.9675 19.5625 27.8221C19.6723 27.3539 19.7817 26.8881 19.8906 26.4248Z" fill="white"/>
</g>
<g id="Group_17">
<path id="Vector_17" opacity="0.943" fill-rule="evenodd" clip-rule="evenodd" d="M3.40356 32.8359C3.89575 32.8359 4.38794 32.8359 4.88012 32.8359C4.88012 34.2332 4.88012 35.6305 4.88012 37.0277C6.27466 37.0277 7.66919 37.0277 9.06372 37.0277C9.06372 37.5209 9.06372 38.014 9.06372 38.5072C7.31351 38.5209 5.5635 38.5072 3.81372 38.4661C3.59976 38.3528 3.47671 38.1747 3.44458 37.9318C3.40356 36.2334 3.3899 34.5348 3.40356 32.8359Z" fill="white"/>
</g>
<g id="Group_18">
<path id="Vector_18" opacity="0.943" fill-rule="evenodd" clip-rule="evenodd" d="M37.0352 32.8359C37.5273 32.8359 38.0195 32.8359 38.5117 32.8359C38.5254 34.5348 38.5117 36.2334 38.4707 37.9318C38.4385 38.1747 38.3155 38.3528 38.1016 38.4661C36.3518 38.5072 34.6018 38.5209 32.8516 38.5072C32.8516 38.014 32.8516 37.5209 32.8516 37.0277C34.2461 37.0277 35.6406 37.0277 37.0352 37.0277C37.0352 35.6305 37.0352 34.2332 37.0352 32.8359Z" fill="white"/>
</g>
</g>
<defs>
<clipPath id="clip0_227_415">
<rect width="42" height="42" fill="white"/>
</clipPath>
</defs>
</svg>
