<svg width="42" height="42" viewBox="0 0 42 42" fill="none" xmlns="http://www.w3.org/2000/svg">
<g id="free-icon-surveillance-2408767 1" clip-path="url(#clip0_227_374)">
<g id="Group">
<path id="Vector" opacity="0.934" fill-rule="evenodd" clip-rule="evenodd" d="M28.3414 -0.0410156C28.943 -0.0410156 29.5446 -0.0410156 30.1461 -0.0410156C35.8783 0.892049 39.6654 4.11862 41.5075 9.63867C41.6856 10.3552 41.836 11.0662 41.9586 11.7715C41.9586 12.373 41.9586 12.9746 41.9586 13.5762C41.5458 14.0858 41.0947 14.1132 40.6051 13.6582C40.4293 8.34635 37.9547 4.55927 33.1813 2.29688C31.5974 1.68654 29.9568 1.35841 28.2594 1.3125C27.8044 0.822921 27.8318 0.371748 28.3414 -0.0410156Z" fill="white"/>
</g>
<g id="Group_2">
<path id="Vector_2" opacity="0.94" fill-rule="evenodd" clip-rule="evenodd" d="M3.32422 41.959C2.50391 41.959 1.68359 41.959 0.863281 41.959C0.480468 41.7402 0.179688 41.4395 -0.0390625 41.0567C-0.0390625 37.9122 -0.0390625 34.7676 -0.0390625 31.6231C0.244654 31.0566 0.709497 30.7557 1.35547 30.7207C1.34179 22.9824 1.35547 15.2441 1.39648 7.50588C2.08712 4.76542 3.85079 3.4119 6.6875 3.44533C8.03076 3.57008 9.15188 4.13063 10.0508 5.12697C10.9567 4.0659 12.0231 3.86082 13.25 4.51174C13.5371 4.79884 13.8242 5.08595 14.1113 5.37306C14.6744 4.78258 15.2622 4.22203 15.875 3.69142C16.7732 3.2565 17.6208 3.33853 18.418 3.93752C21.0293 6.54884 23.6406 9.1602 26.252 11.7715C26.99 10.6855 28.0154 10.2617 29.3281 10.5C31.103 11.137 31.7729 12.3812 31.3379 14.2324C31.0862 14.8388 30.6898 15.3173 30.1484 15.668C33.2793 18.7989 36.4101 21.9297 39.541 25.0606C39.9964 25.669 40.0237 26.2978 39.623 26.9473C39.0016 27.4017 38.3589 27.8255 37.6953 28.2188C38.0946 28.5905 38.4637 28.9871 38.8027 29.4082C38.9943 29.9271 38.9396 30.4193 38.6387 30.8848C36.5315 32.5277 34.3577 34.0726 32.1172 35.5195C31.6878 35.5997 31.2777 35.545 30.8867 35.3555C30.1336 34.5887 29.368 33.8368 28.5898 33.0996C27.7242 33.7274 26.8218 33.7957 25.8828 33.3047C24.2035 31.7075 22.5492 30.0805 20.9199 28.4238C20.0499 29.5062 18.9971 29.7386 17.7617 29.1211C17.3132 28.7547 16.8893 28.3582 16.4902 27.9317C15.7208 28.7422 14.9142 29.5079 14.0703 30.2285C14.002 32.689 13.961 35.1499 13.9473 37.6113C13.6244 38.8366 12.8451 39.5885 11.6094 39.8672C9.36738 39.9082 7.12517 39.9219 4.88281 39.9082C4.82333 40.9509 4.3038 41.6345 3.32422 41.959ZM5.86719 4.88088C7.1343 4.81739 8.17336 5.26856 8.98437 6.23439C7.44229 7.63721 7.46963 9.01804 9.06641 10.377C8.43616 11.0208 7.82091 11.6771 7.2207 12.3457C6.75732 13.3221 6.8667 14.2244 7.54883 15.0528C9.01169 16.5156 10.4746 17.9786 11.9375 19.4414C10.8994 20.2715 10.6397 21.2969 11.1582 22.5176C11.552 22.9935 11.9758 23.4447 12.4297 23.8711C11.7461 24.5547 11.0625 25.2383 10.3789 25.9219C9.30938 26.2804 8.63943 27.005 8.36914 28.0957C8.32812 30.1463 8.31443 32.1971 8.32812 34.2481C7.17969 34.2481 6.03125 34.2481 4.88281 34.2481C4.89646 33.6186 4.88279 32.9896 4.8418 32.3613C4.5478 31.3592 3.87787 30.8123 2.83203 30.7207C2.81836 23.0371 2.83203 15.3535 2.87305 7.66994C3.28147 6.09917 4.27951 5.16949 5.86719 4.88088ZM16.8594 4.88088C17.0658 4.90182 17.2572 4.97017 17.4336 5.08595C24.4062 12.0586 31.3789 19.0313 38.3516 26.0039C36.5126 27.0944 34.6669 28.1744 32.8144 29.2442C26.0742 22.5039 19.334 15.7637 12.5937 9.02345C13.9841 7.59185 15.4059 6.211 16.8594 4.88088ZM11.6914 5.61916C11.8848 5.60576 12.0761 5.61944 12.2656 5.66017C12.5267 5.90754 12.7728 6.16731 13.0039 6.43947C12.0754 7.40902 11.132 8.36606 10.1738 9.31056C9.80665 9.01254 9.51955 8.6571 9.3125 8.24416C9.36155 8.13796 9.40257 8.02859 9.43555 7.91603C10.2041 7.16121 10.9561 6.39558 11.6914 5.61916ZM11.4453 10.1309C17.8232 16.3858 24.167 22.6885 30.4766 29.0391C29.4922 30.0235 28.5078 31.0078 27.5234 31.9922C27.1856 32.2376 26.8575 32.2102 26.5391 31.9102C20.5645 25.9356 14.5898 19.9609 8.61523 13.9863C8.38177 13.7059 8.35437 13.4051 8.5332 13.084C9.52045 12.1105 10.4912 11.1261 11.4453 10.1309ZM28.2617 11.9356C29.4769 11.8792 30.0374 12.4534 29.9434 13.6582C29.7772 14.0978 29.4764 14.3986 29.041 14.5606C28.4656 13.9988 27.905 13.4246 27.3594 12.8379C27.5297 12.3941 27.8305 12.0934 28.2617 11.9356ZM13.0039 20.4668C15.3116 22.7335 17.6085 25.0167 19.8945 27.3164C19.6466 27.6473 19.3322 27.8798 18.9512 28.0137C18.7959 27.9566 18.6455 27.8882 18.5 27.8086C16.5175 25.8262 14.5352 23.8438 12.5527 21.8613C12.3295 21.6039 12.3022 21.3305 12.4707 21.041C12.6653 20.8603 12.843 20.6689 13.0039 20.4668ZM13.4141 24.9785C14.1189 25.5464 14.7751 26.1753 15.3828 26.8652C14.9453 27.3574 14.4805 27.8223 13.9883 28.2598C13.7647 27.2851 13.2178 26.5604 12.3477 26.086C12.7198 25.7276 13.0753 25.3584 13.4141 24.9785ZM10.9531 27.2754C11.7097 27.2775 12.2155 27.6329 12.4707 28.3418C12.5254 31.3497 12.5254 34.3574 12.4707 37.3652C12.2929 37.8711 11.9512 38.2129 11.4453 38.3906C9.25795 38.4317 7.07048 38.4454 4.88281 38.4317C4.88281 37.5293 4.88281 36.627 4.88281 35.7246C6.11358 35.7383 7.34405 35.7246 8.57422 35.6836C9.2075 35.5699 9.60396 35.2008 9.76367 34.5762C9.79099 32.4981 9.81839 30.4199 9.8457 28.3418C10.044 27.8016 10.4131 27.4462 10.9531 27.2754ZM36.1367 28.9981C36.223 28.9858 36.305 28.9995 36.3828 29.0391C36.7109 29.3672 37.0391 29.6953 37.3672 30.0235C36.6691 30.4955 35.9855 30.9877 35.3164 31.5C35.2344 31.5547 35.1523 31.5547 35.0703 31.5C34.6875 31.1172 34.3047 30.7344 33.9219 30.3516C34.6654 29.8984 35.4037 29.4472 36.1367 28.9981ZM31.4609 30.1465C32.3151 30.8773 33.1354 31.6566 33.9219 32.4844C33.1964 32.9914 32.4718 33.4973 31.748 34.002C31.0269 33.3629 30.3296 32.693 29.6562 31.9922C30.2744 31.3878 30.876 30.7726 31.4609 30.1465ZM1.4375 32.1973C1.93044 32.1837 2.42263 32.1974 2.91406 32.2383C3.12384 32.2945 3.27423 32.4175 3.36523 32.6074C3.41992 35.0957 3.41992 37.584 3.36523 40.0723C3.30088 40.2188 3.20517 40.3418 3.07812 40.4414C2.53194 40.4824 1.98506 40.4961 1.4375 40.4824C1.4375 37.7207 1.4375 34.959 1.4375 32.1973Z" fill="white"/>
</g>
<g id="Group_3">
<path id="Vector_3" opacity="0.93" fill-rule="evenodd" clip-rule="evenodd" d="M28.4242 3.4043C33.1805 3.55934 36.3933 5.85622 38.0628 10.2949C38.3778 11.3398 38.5146 12.4062 38.473 13.4941C38.1233 14.0402 37.6857 14.1223 37.1605 13.7402C37.082 10.8082 35.9199 8.41559 33.6742 6.5625C32.0239 5.41996 30.1918 4.8184 28.1781 4.75781C27.7896 4.21307 27.8716 3.7619 28.4242 3.4043Z" fill="white"/>
</g>
<g id="Group_4">
<path id="Vector_4" opacity="0.926" fill-rule="evenodd" clip-rule="evenodd" d="M28.3437 6.93164C31.4536 6.94742 33.5727 8.39664 34.7011 11.2793C34.9445 12.0284 35.0266 12.794 34.9472 13.5762C34.7096 13.958 34.3679 14.0811 33.9219 13.9453C33.8261 13.8496 33.7305 13.7539 33.6347 13.6582C33.4098 10.3982 31.6735 8.63453 28.4258 8.36719C27.9673 8.16615 27.8169 7.82435 27.9746 7.3418C28.0587 7.16239 28.1817 7.02568 28.3437 6.93164Z" fill="white"/>
</g>
</g>
<defs>
<clipPath id="clip0_227_374">
<rect width="42" height="42" fill="white"/>
</clipPath>
</defs>
</svg>
