<svg width="42" height="42" viewBox="0 0 42 42" fill="none" xmlns="http://www.w3.org/2000/svg">
<g id="free-icon-backhoe-3469262 1">
<g id="Group">
<path id="Vector" opacity="0.962" fill-rule="evenodd" clip-rule="evenodd" d="M34.7383 11.1149C36.7825 10.8782 38.136 11.726 38.7988 13.6579C39.2343 19.5072 39.6445 25.3587 40.0293 31.2126C41.3742 32.926 41.6749 34.8128 40.9316 36.8727C40.1509 38.555 38.8521 39.5804 37.0352 39.9489C35.8594 40.0036 34.6836 40.0036 33.5078 39.9489C33.1789 39.8387 32.8918 39.661 32.6465 39.4157C30.8533 41.4829 28.7342 41.8793 26.2891 40.6051C25.5938 40.1016 25.047 39.4727 24.6484 38.7184C22.1875 38.6637 19.7266 38.6637 17.2656 38.7184C16.147 40.6996 14.4518 41.5472 12.1797 41.2614C10.1594 40.7587 8.92895 39.4872 8.48828 37.4469C8.05416 37.3653 7.61667 37.338 7.17578 37.3649C7.18945 38.4043 7.17577 39.4434 7.13477 40.4821C6.98438 40.8512 6.72461 41.111 6.35547 41.2614C4.71484 41.3161 3.07422 41.3161 1.43359 41.2614C1.06445 41.111 0.804687 40.8512 0.654297 40.4821C0.599609 39.7165 0.599609 38.9508 0.654297 38.1852C0.804687 37.8161 1.06445 37.5563 1.43359 37.4059C1.84284 37.365 2.253 37.3513 2.66406 37.3649C3.0153 35.0934 3.38444 32.8239 3.77148 30.5563C3.88105 30.064 4.16815 29.7222 4.63281 29.5309C6.75329 29.1222 7.60094 29.9835 7.17578 32.1149C7.61328 32.1149 8.05078 32.1149 8.48828 32.1149C8.56736 30.053 9.60637 28.7542 11.6055 28.2184C13.2111 28.2042 14.8107 28.1632 16.4043 28.0954C16.7937 25.0619 17.1628 22.0268 17.5117 18.9899C16.9697 18.9542 16.6006 18.6808 16.4043 18.1696C16.3496 17.404 16.3496 16.6383 16.4043 15.8727C16.5547 15.5036 16.8145 15.2438 17.1836 15.0934C21.4492 15.0387 25.7148 15.0387 29.9805 15.0934C30.3496 15.2438 30.6094 15.5036 30.7598 15.8727C30.8145 16.6383 30.8145 17.404 30.7598 18.1696C30.5635 18.6808 30.1943 18.9542 29.6523 18.9899C29.8397 21.1272 30.0721 23.26 30.3496 25.3883C30.9596 22.1608 31.5748 18.9342 32.1953 15.7087C31.7265 13.4178 32.5741 11.8865 34.7383 11.1149ZM34.9023 12.5094C36.0979 12.348 36.9319 12.8129 37.4043 13.904C37.8316 19.5341 38.2281 25.1669 38.5938 30.8024C38.1177 30.8506 37.6665 30.7958 37.2402 30.6383C35.9968 25.528 34.7663 20.4148 33.5488 15.2985C33.2812 14.0021 33.7323 13.0724 34.9023 12.5094ZM17.6758 16.3649C21.6133 16.3649 25.5508 16.3649 29.4883 16.3649C29.4883 16.8024 29.4883 17.2399 29.4883 17.6774C25.5508 17.6774 21.6133 17.6774 17.6758 17.6774C17.6758 17.2399 17.6758 16.8024 17.6758 16.3649ZM18.9883 18.9899C22.0512 18.9626 25.1138 18.9899 28.1758 19.0719C28.3371 20.3461 28.5011 21.6176 28.668 22.8864C27.8642 22.7341 27.249 22.9939 26.8223 23.6657C26.3994 25.6022 26.0029 27.5436 25.6328 29.4899C24.5661 29.4762 23.4997 29.4899 22.4336 29.5309C22.0645 29.6813 21.8047 29.9411 21.6543 30.3102C21.6133 31.7865 21.5996 33.2631 21.6133 34.7399C21.1758 34.7399 20.7383 34.7399 20.3008 34.7399C20.2871 32.0054 20.3008 29.271 20.3418 26.5368C20.7532 26.1117 21.177 25.7015 21.6133 25.3063C21.8867 25.5524 22.1602 25.7985 22.4336 26.0446C22.789 25.7438 23.1172 25.4157 23.418 25.0602C22.5703 24.1579 21.6953 23.2829 20.793 22.4352C20.4375 22.736 20.1094 23.0642 19.8086 23.4196C20.026 23.6781 20.2585 23.9242 20.5059 24.1579C20.5606 24.2126 20.5606 24.2672 20.5059 24.3219C20.1094 24.7184 19.7129 25.1149 19.3164 25.5114C18.9346 25.5523 18.5518 25.566 18.168 25.5524C18.4014 23.3564 18.6749 21.169 18.9883 18.9899ZM32.9336 19.154C32.9842 19.1631 33.0252 19.1904 33.0566 19.236C33.1556 19.7033 33.2649 20.1681 33.3848 20.6305C33.4258 23.5835 33.4395 26.5366 33.4258 29.4899C32.605 29.5035 31.7847 29.4899 30.9648 29.4489C31.6606 26.027 32.3168 22.5953 32.9336 19.154ZM28.0938 24.2399C28.3356 24.2172 28.568 24.2445 28.791 24.3219C28.9958 26.0425 29.1736 27.7651 29.3242 29.4899C28.5581 29.5035 27.7924 29.4899 27.0273 29.4489C27.4087 27.7199 27.7641 25.9836 28.0938 24.2399ZM34.7383 26.4548C35.1846 28.1033 35.5948 29.7714 35.9688 31.4587C35.6126 32.9655 35.2434 34.4694 34.8613 35.9704C34.3873 36.0776 33.9088 36.0776 33.4258 35.9704C33.346 35.5532 33.2093 35.1568 33.0156 34.7809C33.7909 34.8924 34.3514 34.6053 34.6973 33.9196C34.7383 31.4314 34.752 28.9432 34.7383 26.4548ZM18.0039 26.8649C18.332 26.8649 18.6602 26.8649 18.9883 26.8649C18.9883 29.4899 18.9883 32.1149 18.9883 34.7399C18.5508 34.7399 18.1133 34.7399 17.6758 34.7399C17.6621 32.7983 17.6758 30.8569 17.7168 28.9157C17.7928 28.2252 17.8885 27.5417 18.0039 26.8649ZM12.4258 29.4899C13.7383 29.4899 15.0508 29.4899 16.3633 29.4899C16.377 30.8027 16.3633 32.1152 16.3223 33.4274C15.9704 33.0465 15.5602 32.7456 15.0918 32.5251C15.0508 31.9515 15.0372 31.3773 15.0508 30.8024C14.6133 30.8024 14.1758 30.8024 13.7383 30.8024C13.7383 31.2399 13.7383 31.6774 13.7383 32.1149C13.3008 32.1149 12.8633 32.1149 12.4258 32.1149C12.4258 31.6774 12.4258 31.2399 12.4258 30.8024C11.9883 30.8024 11.5508 30.8024 11.1133 30.8024C11.1269 31.3773 11.1133 31.9515 11.0723 32.5251C10.6039 32.7456 10.1937 33.0465 9.8418 33.4274C9.69184 32.3695 9.88322 31.3851 10.416 30.4743C10.9696 29.8897 11.6396 29.5616 12.4258 29.4899ZM5.125 30.8024C5.37109 30.8024 5.61719 30.8024 5.86328 30.8024C5.86328 33.8649 5.86328 36.9274 5.86328 39.9899C4.55078 39.9899 3.23828 39.9899 1.92578 39.9899C1.92578 39.5524 1.92578 39.1149 1.92578 38.6774C2.57544 38.7032 3.21802 38.6759 3.85352 38.5954C4.27753 35.9966 4.70136 33.399 5.125 30.8024ZM22.9258 30.8024C23.4733 30.7888 24.0202 30.8024 24.5664 30.8434C23.9239 31.2673 23.3907 31.8005 22.9668 32.443C22.9258 31.8969 22.9122 31.35 22.9258 30.8024ZM28.75 30.8024C30.3086 30.8024 31.8672 30.8024 33.4258 30.8024C33.4258 31.6774 33.4258 32.5524 33.4258 33.4274C32.9874 33.441 32.5499 33.4273 32.1133 33.3864C30.6424 32.0823 28.9744 31.7542 27.1094 32.402C25.0223 33.3895 24.0652 35.0438 24.2383 37.3649C23.8008 37.3649 23.3633 37.3649 22.9258 37.3649C22.8894 34.14 24.3932 32.0209 27.4375 31.0075C27.8864 30.9364 28.3239 30.868 28.75 30.8024ZM37.2812 32.1149C37.8288 32.1013 38.3757 32.1149 38.9219 32.1559C40.0869 33.6699 40.2099 35.2695 39.291 36.9548C38.502 37.9988 37.4492 38.5594 36.1328 38.6364C35.361 38.7116 34.5954 38.6843 33.8359 38.5544C33.6856 38.5133 33.5898 38.4176 33.5488 38.2673C33.4474 37.9752 33.4063 37.6744 33.4258 37.3649C34.2734 37.3649 35.1211 37.3649 35.9688 37.3649C36.381 35.6067 36.8184 33.8567 37.2812 32.1149ZM7.17578 33.4274C7.61328 33.4274 8.05078 33.4274 8.48828 33.4274C8.48828 34.3024 8.48828 35.1774 8.48828 36.0524C8.05078 36.0524 7.61328 36.0524 7.17578 36.0524C7.17578 35.1774 7.17578 34.3024 7.17578 33.4274ZM12.4258 33.5094C14.3929 33.3322 15.6644 34.1799 16.2402 36.0524C16.4575 38.0212 15.6235 39.2927 13.7383 39.8669C11.7694 40.0841 10.498 39.2502 9.92383 37.3649C9.72359 35.394 10.5576 34.1088 12.4258 33.5094ZM28.1758 33.5094C30.1429 33.3322 31.4144 34.1799 31.9902 36.0524C32.2075 38.0212 31.3735 39.2927 29.4883 39.8669C27.5194 40.0841 26.248 39.2502 25.6738 37.3649C25.4736 35.394 26.3076 34.1088 28.1758 33.5094ZM17.6758 36.0524C18.9883 36.0524 20.3008 36.0524 21.6133 36.0524C21.6133 36.4899 21.6133 36.9274 21.6133 37.3649C20.3008 37.3649 18.9883 37.3649 17.6758 37.3649C17.6758 36.9274 17.6758 36.4899 17.6758 36.0524ZM12.8359 36.1344C13.6029 36.1234 13.8217 36.4652 13.4922 37.1598C12.7913 37.4323 12.4769 37.1999 12.5488 36.4626C12.6054 36.3108 12.7011 36.2014 12.8359 36.1344ZM28.5859 36.1344C29.3529 36.1234 29.5717 36.4652 29.2422 37.1598C28.5413 37.4323 28.2269 37.1999 28.2988 36.4626C28.3554 36.3108 28.4511 36.2014 28.5859 36.1344Z" fill="white"/>
</g>
<g id="Group_2">
<path id="Vector_2" opacity="0.892" fill-rule="evenodd" clip-rule="evenodd" d="M35.069 13.7402C36.0008 13.6754 36.2743 14.0719 35.8893 14.9297C35.025 15.2576 34.6559 14.9704 34.7819 14.0684C34.8385 13.9166 34.9341 13.8072 35.069 13.7402Z" fill="white"/>
</g>
<g id="Group_3">
<path id="Vector_3" opacity="0.934" fill-rule="evenodd" clip-rule="evenodd" d="M12.5112 34.7401C13.7307 34.536 14.5647 35.0008 15.0131 36.1346C15.2577 37.3549 14.8066 38.1889 13.6596 38.6365C12.4393 38.8812 11.6053 38.43 11.1576 37.283C10.9235 36.0553 11.3747 35.2076 12.5112 34.7401ZM12.8393 36.1346C12.7044 36.2015 12.6088 36.311 12.5522 36.4627C12.4802 37.2001 12.7947 37.4325 13.4955 37.16C13.8251 36.4653 13.6063 36.1235 12.8393 36.1346Z" fill="white"/>
</g>
<g id="Group_4">
<path id="Vector_4" opacity="0.934" fill-rule="evenodd" clip-rule="evenodd" d="M28.2612 34.7401C29.4807 34.536 30.3147 35.0008 30.7631 36.1346C31.0077 37.3549 30.5566 38.1889 29.4096 38.6365C28.1893 38.8812 27.3553 38.43 26.9076 37.283C26.6735 36.0553 27.1247 35.2076 28.2612 34.7401ZM28.5893 36.1346C28.4544 36.2015 28.3588 36.311 28.3022 36.4627C28.2302 37.2001 28.5447 37.4325 29.2455 37.16C29.5751 36.4653 29.3563 36.1235 28.5893 36.1346Z" fill="white"/>
</g>
</g>
</svg>
