<svg width="42" height="42" viewBox="0 0 42 42" fill="none" xmlns="http://www.w3.org/2000/svg">
<g id="free-icon-networking-1006592 1" clip-path="url(#clip0_227_458)">
<g id="Group">
<path id="Vector" opacity="0.929" fill-rule="evenodd" clip-rule="evenodd" d="M20.1367 5.45473C22.926 5.16137 25.0724 6.17309 26.5762 8.48989C27.0003 9.25639 27.2464 10.0767 27.3145 10.9508C27.3692 12.5094 27.3692 14.068 27.3145 15.6266C27.2456 16.4618 27.0269 17.2548 26.6582 18.0055C26.0619 18.3414 25.6653 18.191 25.4688 17.5543C25.8312 16.7631 25.9952 15.9428 25.961 15.0934C23.4547 14.3733 21.1031 13.3205 18.9063 11.9352C18.879 11.9625 18.8516 11.9899 18.8242 12.0172C19.0162 12.565 19.2077 13.1119 19.3985 13.6579C19.324 14.1877 19.0232 14.3928 18.4961 14.2731C17.5455 13.9825 16.6841 13.5313 15.9121 12.9196C15.8574 13.9039 15.8574 14.8883 15.9121 15.8727C16.5065 18.5316 18.1609 19.9807 20.875 20.2204C22.1723 20.1865 23.3207 19.7626 24.3203 18.9489C25.0757 18.8561 25.3628 19.1705 25.1817 19.8922C23.3667 21.4421 21.3022 21.8933 18.9883 21.2457C16.5163 20.3596 15.0533 18.6233 14.5996 16.0368C14.5449 14.2048 14.5449 12.3727 14.5996 10.5407C15.2594 7.54261 17.1051 5.8473 20.1367 5.45473ZM20.2188 6.76723C22.1888 6.55278 23.8158 7.18168 25.0996 8.65395C25.4992 9.19552 25.7726 9.79714 25.9199 10.4586C26.0469 11.5489 26.0742 12.6427 26.002 13.7399C23.521 12.971 21.2105 11.8636 19.0703 10.4176C18.8619 10.0671 18.5612 9.83471 18.168 9.72036C17.7258 9.81002 17.4934 10.0834 17.4707 10.5407C17.4134 11.1802 17.4408 11.8091 17.5528 12.4274C16.9585 12.0523 16.4117 11.6147 15.9121 11.1149C16.2623 8.59087 17.6979 7.14166 20.2188 6.76723Z" fill="white"/>
</g>
<g id="Group_2">
<path id="Vector_2" opacity="0.931" fill-rule="evenodd" clip-rule="evenodd" d="M5.61719 7.67016C8.05093 7.6565 10.4845 7.67016 12.918 7.71118C13.118 7.77466 13.2685 7.89771 13.3691 8.08032C13.4412 8.98677 13.4139 9.88911 13.2871 10.7874C13.0564 11.7274 12.5643 12.493 11.8105 13.0842C11.7832 14.342 11.7558 15.5999 11.7285 16.8577C11.3206 19.0978 10.0217 20.5333 7.83203 21.1643C5.52756 21.5634 3.7092 20.8114 2.37696 18.9084C1.94957 18.2005 1.70348 17.4349 1.63867 16.6116C1.58398 14.9436 1.58398 13.2756 1.63867 11.6077C1.69843 10.6546 2.04023 9.82069 2.66406 9.10571C3.4089 8.84198 3.7507 9.10177 3.68946 9.88501C3.07295 10.71 2.81318 11.6397 2.91016 12.6741C5.17986 12.6878 7.44938 12.6741 9.71875 12.6331C11.4859 12.0685 12.2788 10.8517 12.0977 8.98266C9.6898 8.97528 7.28351 8.9889 4.87891 9.02368C4.46586 8.77652 4.37016 8.43469 4.5918 7.99829C4.68787 7.884 4.81091 7.81565 4.96094 7.79321C5.19593 7.77821 5.41469 7.73719 5.61719 7.67016ZM10.2109 13.8225C10.293 13.8225 10.375 13.8225 10.457 13.8225C10.4707 14.7526 10.457 15.6823 10.416 16.6116C10.0127 18.6693 8.7685 19.7904 6.6836 19.9749C4.77765 19.8361 3.56085 18.8518 3.03321 17.0217C2.92535 16.0132 2.88433 15.0015 2.91016 13.9866C5.23454 14.0003 7.55875 13.9866 9.88281 13.9456C10.0106 13.9283 10.12 13.8873 10.2109 13.8225Z" fill="white"/>
</g>
<g id="Group_3">
<path id="Vector_3" opacity="0.93" fill-rule="evenodd" clip-rule="evenodd" d="M34.5742 8.57265C36.9646 8.3524 38.7283 9.28214 39.8653 11.3617C40.0922 11.9138 40.2288 12.488 40.2754 13.0844C40.3472 14.4815 40.3199 15.8761 40.1934 17.268C39.3642 20.0656 37.4911 21.3918 34.5742 21.2465C32.5136 20.9087 31.1191 19.7602 30.3906 17.8012C30.2916 17.4936 30.2231 17.179 30.1856 16.8578C30.1309 15.518 30.1309 14.1781 30.1856 12.8383C30.6418 10.3722 32.1047 8.95033 34.5742 8.57265ZM34.6563 9.88515C36.5068 9.68221 37.8603 10.3932 38.7168 12.018C38.8755 12.4739 38.9576 12.9388 38.9629 13.4125C38.2807 13.182 37.7886 12.7445 37.4863 12.1C37.2265 11.7692 36.912 11.7008 36.543 11.8949C35.5027 12.9261 34.2449 13.5004 32.7696 13.6176C32.329 13.673 31.8915 13.6593 31.4571 13.5766C31.5651 11.5007 32.6315 10.2702 34.6563 9.88515ZM36.7071 13.4945C37.3536 14.0779 38.0919 14.5154 38.9219 14.807C39.1682 16.178 38.9084 17.4359 38.1426 18.5805C36.5677 20.1761 34.8313 20.3811 32.9336 19.1957C31.6843 18.032 31.1921 16.5965 31.4571 14.8891C33.1708 15.0357 34.7842 14.6939 36.2969 13.8637C36.4706 13.7776 36.6073 13.6546 36.7071 13.4945Z" fill="white"/>
</g>
<g id="Group_4">
<path id="Vector_4" opacity="0.936" fill-rule="evenodd" clip-rule="evenodd" d="M-0.0390625 31.7868C-0.0390625 29.9548 -0.0390625 28.1227 -0.0390625 26.2907C0.58127 23.7638 2.19455 22.3829 4.80078 22.1481C6.3342 22.0781 7.86545 22.1054 9.39453 22.2302C10.5582 22.4631 11.5289 23.0238 12.3066 23.9118C12.6069 24.7469 12.3198 25.0886 11.4453 24.9372C10.5665 23.8746 9.44539 23.3961 8.08203 23.5017C8.38186 24.6736 8.66896 25.8493 8.94336 27.029C8.99807 27.3024 8.99807 27.5759 8.94336 27.8493C8.35544 28.4919 7.76758 29.1345 7.17969 29.7771C6.85532 30.0345 6.52719 30.0345 6.19531 29.7771C5.60742 29.1345 5.01953 28.4919 4.43164 27.8493C4.37695 27.6032 4.37695 27.3571 4.43164 27.111C4.73199 25.8824 5.0191 24.6519 5.29297 23.4196C3.21679 23.4597 1.89062 24.4714 1.31445 26.4548C1.20193 27.9834 1.16092 29.5147 1.19141 31.0485C4.14465 31.0348 7.09778 31.0485 10.0508 31.0896C10.5149 31.2396 10.6654 31.5541 10.502 32.0329C10.4713 32.1081 10.4303 32.1765 10.3789 32.238C7.13191 32.3738 3.878 32.4011 0.617188 32.32C0.335146 32.2153 0.116397 32.0376 -0.0390625 31.7868ZM6.6875 23.4196C7.01971 24.7096 7.34784 26.0085 7.67188 27.3161C7.32721 27.6333 7.01276 27.9751 6.72852 28.3415C6.33051 28.0133 6.01606 27.6305 5.78516 27.1931C6.06556 25.9272 6.36633 24.6694 6.6875 23.4196Z" fill="white"/>
</g>
<g id="Group_5">
<path id="Vector_5" opacity="0.936" fill-rule="evenodd" clip-rule="evenodd" d="M41.9592 26.2907C41.9592 28.1227 41.9592 29.9548 41.9592 31.7868C41.8037 32.0376 41.5849 32.2153 41.3029 32.32C38.0421 32.4011 34.7882 32.3738 31.5412 32.238C31.383 31.9709 31.342 31.6838 31.4182 31.3767C31.5264 31.2137 31.6767 31.1179 31.8693 31.0896C34.8223 31.0485 37.7754 31.0348 40.7287 31.0485C40.7592 29.5147 40.7182 27.9834 40.6057 26.4548C40.0295 24.4714 38.7034 23.4597 36.6271 23.4196C36.901 24.6519 37.1882 25.8824 37.4885 27.111C37.5432 27.3571 37.5432 27.6032 37.4885 27.8493C36.9006 28.4919 36.3127 29.1345 35.7248 29.7771C35.3929 30.0345 35.0648 30.0345 34.7404 29.7771C34.1525 29.1345 33.5647 28.4919 32.9768 27.8493C32.922 27.5759 32.922 27.3024 32.9768 27.029C33.2511 25.8493 33.5383 24.6736 33.8381 23.5017C32.4726 23.3911 31.3515 23.8696 30.4748 24.9372C29.6382 25.0547 29.3511 24.7129 29.6135 23.9118C30.3912 23.0238 31.3619 22.4631 32.5256 22.2302C34.0546 22.1054 35.5859 22.0781 37.1193 22.1481C39.7255 22.3829 41.3389 23.7638 41.9592 26.2907ZM35.1506 23.4196C35.2012 23.4287 35.2422 23.4561 35.2736 23.5017C35.6111 24.8066 35.8846 26.1191 36.0939 27.4392C35.7931 27.74 35.4924 28.0407 35.1916 28.3415C34.9074 27.9751 34.5929 27.6333 34.2482 27.3161C34.5958 26.0297 34.8966 24.7308 35.1506 23.4196Z" fill="white"/>
</g>
<g id="Group_6">
<path id="Vector_6" opacity="0.934" fill-rule="evenodd" clip-rule="evenodd" d="M17.8399 22.5995C20.1121 22.5636 22.3816 22.6046 24.6485 22.7225C28.0725 23.6034 29.9182 25.8045 30.1856 29.3261C30.2403 31.2128 30.2403 33.0995 30.1856 34.9862C30.1004 35.8096 29.6492 36.2881 28.8321 36.4218C23.5821 36.4765 18.3321 36.4765 13.0821 36.4218C12.2649 36.2881 11.8137 35.8096 11.7285 34.9862C11.6738 33.0995 11.6738 31.2128 11.7285 29.3261C11.8913 26.4431 13.2722 24.3787 15.8711 23.1327C16.5243 22.9012 17.1806 22.7235 17.8399 22.5995ZM19.3164 23.994C20.396 23.8989 21.4898 23.8852 22.5977 23.953C22.374 24.4228 22.0185 24.7509 21.5313 24.9374C21.2335 25.1876 21.1378 25.502 21.2442 25.8807C21.4766 27.1522 21.709 28.4237 21.9414 29.6952C21.6679 30.3381 21.3397 30.9533 20.9571 31.5409C20.5744 30.9533 20.2463 30.3381 19.9727 29.6952C20.2724 28.2387 20.5048 26.7758 20.6699 25.3065C20.457 24.9874 20.1699 24.755 19.8086 24.6093C19.6331 24.406 19.4691 24.2009 19.3164 23.994ZM17.4297 23.994C17.6211 23.994 17.8125 23.994 18.0039 23.994C18.0569 24.3465 18.18 24.6746 18.3731 24.9784C18.663 25.3501 18.9775 25.6918 19.3164 26.0038C19.183 26.644 19.0599 27.2866 18.9473 27.9315C18.25 26.6874 17.5528 25.4433 16.8555 24.1991C17.0609 24.1418 17.2523 24.0735 17.4297 23.994ZM23.9102 23.994C24.3066 23.9838 24.6895 24.0521 25.0586 24.1991C24.3613 25.4433 23.6641 26.6874 22.9668 27.9315C22.8542 27.2866 22.7311 26.644 22.5977 26.0038C22.9366 25.6918 23.2511 25.3501 23.541 24.9784C23.7341 24.6746 23.8572 24.3465 23.9102 23.994ZM15.625 24.7323C17.2432 27.6124 18.8428 30.5109 20.4238 33.4276C20.7793 33.7557 21.1348 33.7557 21.4903 33.4276C23.0762 30.5292 24.6622 27.6307 26.2481 24.7323C27.8838 25.8148 28.7587 27.3461 28.8731 29.3261C28.9406 31.2163 28.9269 33.103 28.8321 34.9862C28.789 35.043 28.7343 35.084 28.668 35.1093C23.4967 35.1773 18.3287 35.1636 13.1641 35.0682C13.1073 35.0252 13.0663 34.9705 13.041 34.9042C12.9863 33.0448 12.9863 31.1855 13.041 29.3261C13.1621 27.3595 14.0234 25.8283 15.625 24.7323Z" fill="white"/>
</g>
</g>
<defs>
<clipPath id="clip0_227_458">
<rect width="42" height="42" fill="white"/>
</clipPath>
</defs>
</svg>
