<svg width="42" height="42" viewBox="0 0 42 42" fill="none" xmlns="http://www.w3.org/2000/svg">
<g id="free-icon-gate-11286839 1">
<g id="Group">
<path id="Vector" opacity="0.937" fill-rule="evenodd" clip-rule="evenodd" d="M6.85009 4.71703C7.75284 4.70337 8.65519 4.71705 9.55712 4.75805C12.1697 5.02385 13.9743 6.3637 14.9712 8.77758C22.4087 8.8049 29.8462 8.83229 37.2837 8.85961C39.1627 9.29561 40.2974 10.4577 40.688 12.3459C40.7427 13.2483 40.7427 14.1506 40.688 15.053C40.1873 17.1568 38.8611 18.3463 36.7095 18.6213C29.5728 18.6623 22.4361 18.676 15.2993 18.6623C15.313 22.8733 15.2993 27.0843 15.2583 31.2952C15.2201 31.4125 15.1517 31.5082 15.0532 31.5823C10.5756 31.7183 6.09125 31.7456 1.60009 31.6643C1.48272 31.6262 1.38701 31.5577 1.31298 31.4592C1.21768 27.8703 1.17666 24.2746 1.18993 20.6721C1.17752 16.9645 1.21854 13.2594 1.31298 9.55688C1.91328 7.15192 3.40351 5.607 5.78368 4.92211C6.15187 4.85975 6.50734 4.79139 6.85009 4.71703ZM6.85009 6.02953C7.78018 6.01587 8.7099 6.02954 9.63915 6.07055C11.3826 6.31209 12.6677 7.20076 13.4946 8.73656C10.8427 8.8049 8.19036 8.84591 5.53759 8.85961C5.46923 8.92794 5.40087 8.99636 5.33251 9.06469C5.23778 10.6024 5.19677 12.1473 5.20947 13.6995C5.19728 15.2768 5.2383 16.8491 5.33251 18.4163C5.44895 18.495 5.57199 18.5633 5.70165 18.6213C8.46323 18.6623 11.225 18.676 13.9868 18.6623C13.9868 22.5725 13.9868 26.4826 13.9868 30.3928C10.1587 30.3928 6.33056 30.3928 2.50243 30.3928C2.48876 23.6389 2.50243 16.885 2.54345 10.1311C3.06307 7.79293 4.49862 6.42575 6.85009 6.02953ZM6.52197 10.0491C8.57291 10.0354 10.6237 10.0491 12.6743 10.0901C10.6372 12.1272 8.60006 14.1643 6.56298 16.2014C6.52197 14.1508 6.5083 12.1 6.52197 10.0491ZM14.561 10.0491C16.7213 10.0354 18.8815 10.0491 21.0415 10.0901C18.6353 12.4963 16.229 14.9026 13.8227 17.3088C11.6626 17.3635 9.50241 17.3635 7.34228 17.3088C9.76507 14.8997 12.1713 12.4798 14.561 10.0491ZM22.9282 10.0491C25.0612 10.0354 27.194 10.0491 29.3267 10.0901C26.9204 12.4963 24.5141 14.9026 22.1079 17.3088C19.9751 17.3635 17.8423 17.3635 15.7095 17.3088C18.1323 14.8997 20.5385 12.4798 22.9282 10.0491ZM31.2134 10.0491C33.1318 10.0114 35.0458 10.0524 36.9556 10.1721C34.5767 12.551 32.1977 14.9299 29.8188 17.3088C27.8774 17.3635 25.9361 17.3635 23.9946 17.3088C26.4174 14.8997 28.8236 12.4798 31.2134 10.0491ZM38.186 10.7873C38.8237 11.1853 39.2201 11.7595 39.3755 12.51C39.4302 13.303 39.4302 14.0959 39.3755 14.8889C39.0426 16.2609 38.1813 17.0675 36.7915 17.3088C35.0962 17.3635 33.4009 17.3635 31.7056 17.3088C33.8823 15.1458 36.0424 12.972 38.186 10.7873Z" fill="white"/>
</g>
<g id="Group_2">
<path id="Vector_2" opacity="0.944" fill-rule="evenodd" clip-rule="evenodd" d="M26.2891 21.0411C27.6745 20.9058 28.5358 21.5073 28.8731 22.8458C28.9278 25.334 28.9278 27.8224 28.8731 30.3106C28.5371 31.6616 27.6758 32.2495 26.2891 32.0743C25.5428 31.8474 25.0369 31.3689 24.7715 30.6388C24.7168 27.9317 24.7168 25.2247 24.7715 22.5177C25.0517 21.7862 25.5576 21.294 26.2891 21.0411ZM26.4531 22.3536C27.0185 22.2502 27.3876 22.4689 27.5606 23.0099C27.6153 25.3888 27.6153 27.7677 27.5606 30.1466C27.2943 30.8317 26.8431 30.9821 26.2071 30.5977C26.1283 30.4813 26.06 30.3583 26.002 30.2286C25.9473 27.795 25.9473 25.3614 26.002 22.9278C26.0813 22.6718 26.2317 22.4804 26.4531 22.3536Z" fill="white"/>
</g>
<g id="Group_3">
<path id="Vector_3" opacity="0.931" fill-rule="evenodd" clip-rule="evenodd" d="M26.2072 32.197C27.6456 32.011 28.5342 32.6126 28.8732 34.0017C28.9942 34.8032 28.8848 35.5689 28.5451 36.2986C27.4234 37.4714 26.275 37.4988 25.0997 36.3806C24.9678 36.1442 24.8585 35.8981 24.7716 35.6423C24.6967 34.8978 24.724 34.1595 24.8537 33.4275C25.1463 32.8378 25.5974 32.4277 26.2072 32.197ZM26.6173 33.4275C27.3517 33.4981 27.6798 33.9083 27.6017 34.6579C27.651 35.5807 27.2408 35.9498 26.3712 35.7654C26.0332 35.4762 25.8964 35.1071 25.9611 34.6579C25.8735 34.0665 26.0922 33.6563 26.6173 33.4275Z" fill="white"/>
</g>
</g>
</svg>
