<svg width="16" height="17" viewBox="0 0 16 17" fill="none" xmlns="http://www.w3.org/2000/svg">
<g id="fi-rr-marker" clip-path="url(#clip0_158_374)">
<g id="Group 5">
<path id="Vector" d="M8.00065 4.5C7.47324 4.5 6.95766 4.6564 6.51913 4.94941C6.0806 5.24243 5.73881 5.65891 5.53697 6.14618C5.33514 6.63345 5.28233 7.16962 5.38522 7.68691C5.48812 8.20419 5.74209 8.67935 6.11503 9.05229C6.48797 9.42523 6.96313 9.6792 7.48041 9.78209C7.99769 9.88499 8.53387 9.83218 9.02114 9.63035C9.50841 9.42851 9.92489 9.08672 10.2179 8.64819C10.5109 8.20966 10.6673 7.69408 10.6673 7.16667C10.6673 6.45942 10.3864 5.78115 9.88627 5.28105C9.38617 4.78095 8.7079 4.5 8.00065 4.5ZM8.00065 8.5C7.73694 8.5 7.47916 8.4218 7.25989 8.27529C7.04063 8.12878 6.86973 7.92055 6.76881 7.67691C6.6679 7.43328 6.64149 7.16519 6.69294 6.90655C6.74439 6.64791 6.87137 6.41033 7.05784 6.22386C7.24431 6.03739 7.48189 5.9104 7.74053 5.85895C7.99917 5.80751 8.26726 5.83391 8.5109 5.93483C8.75453 6.03574 8.96277 6.20664 9.10928 6.42591C9.25579 6.64517 9.33399 6.90296 9.33399 7.16667C9.33399 7.52029 9.19351 7.85943 8.94346 8.10948C8.69341 8.35952 8.35427 8.5 8.00065 8.5Z" fill="#5041FF"/>
<path id="Vector_2" d="M8.00021 16.5001C7.43884 16.503 6.88495 16.3713 6.38492 16.1161C5.88489 15.861 5.45327 15.4897 5.12621 15.0334C2.58554 11.5288 1.29688 8.89411 1.29688 7.20211C1.29688 5.42428 2.00312 3.71926 3.26024 2.46214C4.51735 1.20502 6.22237 0.498779 8.00021 0.498779C9.77804 0.498779 11.4831 1.20502 12.7402 2.46214C13.9973 3.71926 14.7035 5.42428 14.7035 7.20211C14.7035 8.89411 13.4149 11.5288 10.8742 15.0334C10.5471 15.4897 10.1155 15.861 9.6155 16.1161C9.11547 16.3713 8.56158 16.503 8.00021 16.5001ZM8.00021 1.95411C6.60849 1.9557 5.27422 2.50926 4.29012 3.49336C3.30603 4.47746 2.75246 5.81172 2.75087 7.20345C2.75087 8.54345 4.01287 11.0214 6.30354 14.1808C6.498 14.4486 6.75312 14.6666 7.04802 14.817C7.34291 14.9673 7.66921 15.0456 8.00021 15.0456C8.33121 15.0456 8.6575 14.9673 8.9524 14.817C9.24729 14.6666 9.50241 14.4486 9.69687 14.1808C11.9875 11.0214 13.2495 8.54345 13.2495 7.20345C13.248 5.81172 12.6944 4.47746 11.7103 3.49336C10.7262 2.50926 9.39193 1.9557 8.00021 1.95411Z" fill="#5041FF"/>
</g>
</g>
<defs>
<clipPath id="clip0_158_374">
<rect width="16" height="16" fill="white" transform="translate(0 0.5)"/>
</clipPath>
</defs>
</svg>
